<?xml version="1.0" encoding="utf-8"?>
<!-- Generator: Adobe Illustrator 24.1.1, SVG Export Plug-In . SVG Version: 6.00 Build 0)  -->
<svg version="1.1" id="Слой_1" xmlns="http://www.w3.org/2000/svg" xmlns:xlink="http://www.w3.org/1999/xlink" x="0px" y="0px"
	 viewBox="0 0 673 199" style="enable-background:new 0 0 673 199;" xml:space="preserve">
<style type="text/css">
	.st0{fill:#100F0D;}
	.st1{fill:#FFFFFF;}
	.st2{fill:#FFFFFF;stroke:#FFFFFF;stroke-miterlimit:10;}
</style>
<path class="st0" d="M647.5,199H24.9C11.2,199,0,187.8,0,174.1V24.9C0,11.2,11.2,0,24.9,0h622.6c13.7,0,24.9,11.2,24.9,24.9v149.3
	C672.4,187.8,661.2,199,647.5,199z"/>
<path class="st1" d="M128.1,102.9c0.1-4.2,1.2-8.3,3.2-11.9c2.1-3.6,5-6.7,8.6-8.9c-2.3-3.2-5.2-5.9-8.7-7.8
	c-3.5-1.9-7.3-2.9-11.3-3c-8.4-0.9-16.5,5-20.8,5c-4.4,0-11-4.9-18.1-4.8c-4.6,0.1-9.1,1.5-13,3.9c-3.9,2.4-7.2,5.8-9.4,9.8
	c-9.7,16.7-2.5,41.3,6.8,54.9c4.6,6.6,10.1,14,17.1,13.8c6.9-0.3,9.5-4.4,17.9-4.4c8.3,0,10.7,4.4,18,4.3
	c7.4-0.1,12.1-6.7,16.6-13.3c3.3-4.7,5.9-9.9,7.6-15.5c-4.3-1.8-8-4.9-10.6-8.8C129.5,112.2,128.1,107.6,128.1,102.9z"/>
<path class="st1" d="M114.4,62.5c4.1-4.9,6.1-11.1,5.6-17.5c-6.2,0.7-11.9,3.6-16,8.3c-2,2.3-3.6,5-4.5,7.8c-1,2.9-1.4,5.9-1.2,9
	c3.1,0,6.2-0.6,9-2C110,66.8,112.4,64.9,114.4,62.5z"/>
<path class="st1" d="M215.8,81.3h-23.7l-5.7,16.8h-10L198.8,36h10.4l22.4,62.1h-10.2L215.8,81.3z M194.5,73.6h18.8l-9.3-27.2h-0.3
	L194.5,73.6z"/>
<path class="st1" d="M280.1,75.5c0,14.1-7.5,23.1-18.9,23.1c-2.9,0.2-5.7-0.5-8.3-1.9c-2.5-1.4-4.6-3.5-6-6h-0.2v22.4h-9.3V52.9h9
	v7.5h0.2c1.5-2.5,3.6-4.6,6.1-6c2.5-1.4,5.4-2.1,8.3-2C272.5,52.4,280.1,61.5,280.1,75.5z M270.5,75.5c0-9.2-4.7-15.2-12-15.2
	c-7.1,0-11.9,6.2-11.9,15.2c0,9.1,4.8,15.2,11.9,15.2C265.8,90.7,270.5,84.7,270.5,75.5z"/>
<path class="st1" d="M329.9,75.5c0,14.1-7.5,23.1-18.9,23.1c-2.9,0.2-5.7-0.5-8.3-1.9c-2.5-1.4-4.6-3.5-6-6h-0.2v22.4h-9.3V52.9h9
	v7.5h0.2c1.5-2.5,3.6-4.6,6.1-6c2.5-1.4,5.4-2.1,8.3-2C322.4,52.4,329.9,61.5,329.9,75.5z M320.4,75.5c0-9.2-4.7-15.2-12-15.2
	c-7.1,0-11.9,6.2-11.9,15.2c0,9.1,4.8,15.2,11.9,15.2C315.7,90.7,320.4,84.7,320.4,75.5z"/>
<path class="st1" d="M362.9,80.8c0.7,6.2,6.7,10.2,14.9,10.2c7.8,0,13.5-4,13.5-9.6c0-4.8-3.4-7.7-11.5-9.7l-8.1-1.9
	c-11.4-2.8-16.7-8.1-16.7-16.7c0-10.7,9.3-18.1,22.6-18.1c13.1,0,22.1,7.4,22.4,18.1h-9.4c-0.6-6.2-5.7-9.9-13.2-9.9
	c-7.5,0-12.6,3.8-12.6,9.3c0,4.4,3.3,7,11.3,9l6.8,1.7c12.7,3,18,8.1,18,17.2c0,11.6-9.3,18.9-24,18.9c-13.8,0-23.1-7.1-23.7-18.3
	L362.9,80.8z"/>
<path class="st1" d="M421.1,42.1v10.7h8.6v7.4h-8.6v25c0,3.9,1.7,5.7,5.5,5.7c1,0,2-0.1,3.1-0.2V98c-1.7,0.3-3.4,0.5-5.2,0.4
	c-9.2,0-12.7-3.4-12.7-12.2V60.2h-6.6v-7.4h6.6V42.1H421.1z"/>
<path class="st1" d="M434.7,75.5c0-14.2,8.4-23.2,21.5-23.2c13.1,0,21.5,9,21.5,23.2c0,14.3-8.3,23.2-21.5,23.2
	C443,98.7,434.7,89.8,434.7,75.5z M468.2,75.5c0-9.8-4.5-15.5-12-15.5c-7.5,0-12,5.8-12,15.5c0,9.8,4.5,15.5,12,15.5
	C463.7,91,468.2,85.3,468.2,75.5z"/>
<path class="st1" d="M485.3,52.9h8.9v7.7h0.2c0.6-2.4,2-4.5,4-6c2-1.5,4.4-2.3,6.9-2.2c1.1,0,2.1,0.1,3.2,0.3v8.7
	c-1.4-0.4-2.8-0.6-4.2-0.6c-1.4-0.1-2.7,0.2-3.9,0.7c-1.3,0.5-2.4,1.3-3.3,2.3c-0.9,1-1.6,2.2-2,3.4c-0.4,1.3-0.6,2.6-0.4,4v26.9
	h-9.3V52.9z"/>
<path class="st1" d="M551.4,84.8c-1.3,8.2-9.3,13.9-19.5,13.9c-13.2,0-21.4-8.8-21.4-23c0-14.2,8.2-23.4,21-23.4
	c12.5,0,20.4,8.6,20.4,22.3v3.2h-32v0.6c-0.1,1.7,0.1,3.3,0.6,4.9c0.6,1.6,1.4,3,2.6,4.2c1.2,1.2,2.6,2.2,4.1,2.8
	c1.5,0.6,3.2,0.9,4.9,0.9c2.2,0.2,4.4-0.3,6.3-1.5c1.9-1.1,3.3-2.9,4.2-4.9H551.4z M519.9,71.3h22.6c0.1-1.5-0.1-3-0.7-4.4
	c-0.5-1.4-1.3-2.7-2.4-3.8c-1-1.1-2.3-1.9-3.7-2.5c-1.4-0.6-2.9-0.8-4.4-0.8c-1.5,0-3,0.3-4.4,0.9c-1.4,0.6-2.7,1.4-3.7,2.5
	c-1.1,1.1-1.9,2.3-2.5,3.7C520.2,68.3,519.9,69.8,519.9,71.3z"/>
<g>
	<path class="st2" d="M185.7,157.8v-12.3l-9.2-16.7h4.3l4.1,8c1.1,2.2,2,4,2.9,6h0.1c0.8-1.9,1.8-3.8,2.9-6l4.2-8h4.3l-9.7,16.6
		v12.3H185.7z"/>
	<path class="st2" d="M217.5,152.1c0,2.1,0,4,0.2,5.7h-3.4l-0.2-3.4H214c-1,1.7-3.2,3.9-6.9,3.9c-3.3,0-7.2-1.8-7.2-9.1V137h3.8
		v11.5c0,4,1.2,6.6,4.6,6.6c2.5,0,4.3-1.8,5-3.4c0.2-0.6,0.3-1.2,0.3-1.9V137h3.8V152.1z"/>
	<path class="st2" d="M227.5,146.5L227.5,146.5c0.6-0.7,1.3-1.6,1.9-2.4l6.1-7.2h4.6l-8,8.6l9.2,12.3h-4.6l-7.2-10l-1.9,2.1v7.8
		h-3.7v-30.5h3.7V146.5z"/>
	<path class="st2" d="M244.7,127.2h3.8v30.5h-3.8V127.2z"/>
	<path class="st2" d="M266.4,157.8l-0.3-2.6h-0.1c-1.2,1.6-3.4,3.1-6.4,3.1c-4.2,0-6.4-3-6.4-6c0-5,4.5-7.8,12.5-7.7v-0.4
		c0-1.7-0.5-4.8-4.7-4.8c-1.9,0-4,0.6-5.4,1.5l-0.9-2.5c1.7-1.1,4.2-1.8,6.8-1.8c6.4,0,7.9,4.3,7.9,8.5v7.8c0,1.8,0.1,3.6,0.3,5
		H266.4z M265.8,147.1c-4.1-0.1-8.8,0.6-8.8,4.7c0,2.5,1.6,3.6,3.6,3.6c2.7,0,4.4-1.7,5-3.5c0.1-0.4,0.2-0.8,0.2-1.2V147.1z"/>
	<path class="st2" d="M275.4,157.8c0.1-1.4,0.2-3.5,0.2-5.4v-25.2h3.7v13.1h0.1c1.3-2.3,3.7-3.8,7.1-3.8c5.2,0,8.8,4.3,8.8,10.6
		c0,7.4-4.7,11.1-9.3,11.1c-3,0-5.4-1.2-7-3.9h-0.1l-0.2,3.4H275.4z M279.3,149.4c0,0.5,0.1,0.9,0.2,1.4c0.7,2.6,2.9,4.4,5.7,4.4
		c4,0,6.3-3.2,6.3-8c0-4.2-2.1-7.7-6.2-7.7c-2.6,0-5,1.8-5.8,4.6c-0.1,0.4-0.2,0.9-0.2,1.5V149.4z"/>
	<path class="st2" d="M328,147.2c0,7.7-5.3,11.1-10.4,11.1c-5.6,0-10-4.1-10-10.7c0-7,4.6-11.1,10.3-11.1
		C323.9,136.5,328,140.8,328,147.2z M311.5,147.4c0,4.6,2.6,8,6.3,8c3.6,0,6.3-3.4,6.3-8.1c0-3.5-1.8-8-6.2-8
		C313.4,139.3,311.5,143.4,311.5,147.4z"/>
	<path class="st2" d="M332.8,127.2h3.8v30.5h-3.8V127.2z"/>
	<path class="st2" d="M347.1,131.1c0,1.3-0.9,2.3-2.4,2.3c-1.3,0-2.3-1-2.3-2.3c0-1.3,1-2.4,2.4-2.4
		C346.2,128.7,347.1,129.8,347.1,131.1z M342.9,157.8V137h3.8v20.8H342.9z"/>
	<path class="st2" d="M352.4,153.9c1.1,0.7,3.1,1.5,5,1.5c2.8,0,4-1.4,4-3.1c0-1.8-1.1-2.8-3.9-3.8c-3.7-1.3-5.5-3.4-5.5-5.9
		c0-3.4,2.7-6.1,7.2-6.1c2.1,0,4,0.6,5.1,1.3l-0.9,2.8c-0.8-0.5-2.3-1.2-4.3-1.2c-2.2,0-3.5,1.3-3.5,2.8c0,1.7,1.2,2.5,4,3.5
		c3.6,1.4,5.5,3.2,5.5,6.3c0,3.7-2.8,6.2-7.8,6.2c-2.3,0-4.4-0.6-5.8-1.4L352.4,153.9z"/>
	<path class="st2" d="M370,127.2h3.8v13h0.1c0.6-1.1,1.5-2,2.7-2.7c1.1-0.6,2.5-1.1,3.9-1.1c2.8,0,7.3,1.7,7.3,8.9v12.4h-3.8v-12
		c0-3.4-1.2-6.2-4.8-6.2c-2.5,0-4.4,1.7-5.1,3.8c-0.2,0.5-0.3,1.1-0.3,1.8v12.6H370V127.2z"/>
</g>
</svg>
