<svg xmlns="http://www.w3.org/2000/svg" xml:space="preserve" id="Слой_1" x="0" y="0" style="enable-background:new 0 0 673 199" version="1.1" viewBox="0 0 673 199"><style>.st1,.st3{fill:#fff}.st3{stroke:#fff;stroke-width:.75;stroke-miterlimit:10}</style><path d="M647.5 199H24.9C11.2 199 0 187.8 0 174.1V24.9C0 11.2 11.2 0 24.9 0h622.6c13.7 0 24.9 11.2 24.9 24.9v149.3c0 13.6-11.2 24.8-24.9 24.8z" style="fill:#100f0d"/><path d="M248.1 77.1h-23.5l-5.7 15.6h-10.3l23-58.6h9.8l23.5 58.6h-10.8l-6-15.6zm-20.6-8H245l-6.3-16.8c-.8-2.3-1.7-4.9-2.5-7.7-.8 2.5-1.6 5.1-2.4 7.6l-6.3 16.9zM268.9 59.8c0-3.2-.1-6.8-.3-10.7h9.4c.4 1.9.5 3.6.7 5.5 3.9-4.3 8.3-6.4 13.4-6.4 2.9 0 5.6.7 8.1 2.1 2.5 1.5 4.5 3.7 6 6.9s2.3 7.2 2.3 12c0 5.1-.9 9.5-2.7 13.1-1.7 3.6-4.1 6.4-7.3 8.1-3.1 1.9-6.7 2.8-10.8 2.8-2.9 0-5.9-.5-8.8-1.5V110l-10 .8v-51zm26.3 22.3c2-2.7 3.1-6.7 3.1-12 0-4.9-.8-8.4-2.5-10.5s-3.9-3.3-6.7-3.3c-2 0-3.7.4-5.3 1.3-1.6.9-3.2 2.1-4.7 3.7v23.4c.9.5 2.1.9 3.5 1.2 1.3.3 2.7.4 3.9.4 3.6-.1 6.6-1.4 8.7-4.2zM314.5 59.8c0-3.2-.1-6.8-.3-10.7h9.4c.4 1.9.5 3.6.7 5.5 3.9-4.3 8.3-6.4 13.4-6.4 2.9 0 5.6.7 8.1 2.1 2.5 1.5 4.5 3.7 6 6.9s2.3 7.2 2.3 12c0 5.1-.9 9.5-2.7 13.1-1.7 3.6-4.1 6.4-7.3 8.1-3.1 1.9-6.7 2.8-10.8 2.8-2.9 0-5.9-.5-8.8-1.5V110l-10 .8v-51zm26.3 22.3c2-2.7 3.1-6.7 3.1-12 0-4.9-.8-8.4-2.5-10.5-1.7-2.1-3.9-3.3-6.7-3.3-2 0-3.7.4-5.3 1.3-1.6.9-3.2 2.1-4.7 3.7v23.4c.9.5 2.1.9 3.5 1.2 1.3.3 2.7.4 3.9.4 3.6-.1 6.7-1.4 8.7-4.2zM372.3 89.9c-4.3-2.4-7.6-5.7-9.9-10.3-2.3-4.4-3.5-9.7-3.5-15.8 0-6.5 1.3-12.1 4-16.7s6.3-8 11-10.3c4.5-2.3 9.8-3.5 15.5-3.5 3.3 0 6.5.4 9.6 1.1 3.1.8 5.9 1.7 8.5 3.1l-2.5 7.7c-5.3-2.5-10.4-3.7-15.2-3.7-4 0-7.6.9-10.7 2.7-3.1 1.7-5.5 4.3-7.1 7.6-1.7 3.3-2.5 7.5-2.5 12.1 0 4.1.7 7.9 2 11.1 1.3 3.2 3.3 5.7 6.1 7.7 2.8 1.9 6.4 2.8 10.7 2.8 2 0 3.9-.1 5.9-.5 2-.4 3.7-.8 5.5-1.5V71.8h-13.5V64h23.2v24.7c-3.3 1.6-6.8 2.8-10.6 3.6-3.7.8-7.3 1.2-11 1.2-6 .1-11.1-1.1-15.5-3.6zM444.6 92.8c-.4-1.7-.5-3.6-.7-5.7-1.6 1.9-3.5 3.3-6 4.7-2.4 1.3-5.2 1.9-8.4 1.9-2.5 0-4.8-.5-6.8-1.5-2-.9-3.7-2.4-4.9-4.4-1.2-2-1.9-4.4-1.9-7.2 0-4.3 1.5-7.6 4.5-10.1 3.1-2.5 8.1-3.7 15.2-3.7 2.7 0 5.3.1 7.9.5v-.8c0-3.9-.8-6.5-2.4-8.1-1.6-1.6-4-2.4-7.1-2.4-2.1 0-4.4.3-6.8.9-2.4.7-4.5 1.3-6.4 2.3l-1.6-7.2c1.7-.8 4.1-1.6 7.1-2.3 2.9-.7 6-1.1 9.2-1.1 3.7 0 6.9.5 9.6 1.7 2.7 1.2 4.7 3.1 6.1 5.9 1.5 2.8 2.3 6.5 2.3 11.2v17.4c0 1.9.1 4.5.3 8.1h-9.2zm-5.9-8.2c2.1-.9 3.7-2.3 5.1-3.7v-8.1c-2.7-.3-4.9-.4-6.7-.4-4.1 0-6.9.7-8.5 2-1.6 1.3-2.4 3.1-2.4 5.3 0 2.1.5 3.7 1.7 4.8 1.2 1.1 2.7 1.6 4.7 1.6 2 .1 4-.4 6.1-1.5zM461.4 82.3V30.8l9.9-.8v50.6c0 1.9.3 3.2.9 4 .7.8 1.6 1.2 3.1 1.2.7 0 1.5-.1 2.7-.4l1.2 7.2c-.9.4-2.1.7-3.5.9-1.3.3-2.7.4-3.9.4-6.9-.3-10.4-4.1-10.4-11.6zM486.3 82.3V30.8l9.9-.8v50.6c0 1.9.3 3.2.9 4 .7.8 1.6 1.2 3.1 1.2.7 0 1.5-.1 2.7-.4l1.2 7.2c-.9.4-2.1.7-3.5.9-1.3.3-2.7.4-3.9.4-7-.3-10.4-4.1-10.4-11.6zM544.9 72.2h-28.6c.4 9.1 4.8 13.8 13.1 13.8 2 0 4.1-.3 6.3-.8 2.1-.5 4.1-1.2 6.1-2l2.1 6.8c-4.9 2.4-10.4 3.6-16.4 3.6-4.7 0-8.5-.9-11.8-2.7-3.2-1.7-5.6-4.3-7.2-7.6-1.6-3.3-2.4-7.2-2.4-11.9 0-4.8.8-8.9 2.5-12.4s4-6.1 7.1-8c3.1-1.9 6.5-2.8 10.6-2.8s7.6.9 10.3 2.9c2.8 1.9 4.8 4.5 6.1 7.7 1.3 3.2 2 6.8 2 10.7v2.7h.2zm-9.8-6.3c-.1-3.5-1.1-6.1-2.7-7.9-1.6-1.7-3.6-2.7-6.3-2.7-2.5 0-4.7.9-6.3 2.7-1.7 1.7-2.8 4.4-3.3 7.7h18.6v.2zM552.4 60c0-2.4-.1-6-.3-10.9h9.4c.1 1.2.3 2.7.4 4.4.1 1.7.3 3.1.3 4.1 1.2-1.9 2.3-3.5 3.5-4.8 1.1-1.3 2.4-2.4 3.9-3.2 1.5-.8 3.2-1.2 5.1-1.2 1.6 0 2.8.1 4 .5l-1.2 8.7c-.9-.3-2-.4-3.2-.4-2.4 0-4.4.5-6.1 1.7-1.7 1.2-3.6 3.2-5.6 5.9v28h-9.9V60h-.3zM584.2 110.6c-1.5-.3-2.7-.5-3.6-.9l1.9-7.2c.7.1 1.5.4 2.5.5 1.1.1 2 .3 2.9.3 4.4 0 7.7-2.8 9.9-8.5l.7-1.6-16-43.9h10.7l8.1 24.6c1.3 4.1 2.1 7.5 2.5 9.6.8-3.2 1.6-6.3 2.7-9.5l8.2-24.8h10l-16 44.2c-1.5 4.1-3.2 7.6-4.9 10.1-1.7 2.5-3.9 4.4-6.1 5.7-2.4 1.2-5.2 1.9-8.7 1.9-1.8-.1-3.4-.2-4.8-.5z" class="st1"/><path d="M135.1 36.7H79.6c-26.2 0-35.7 9.6-35.7 35.6v55.4c0 26.2 9.6 35.6 35.7 35.6H135c26.2 0 35.7-9.6 35.7-35.6V72.4c.2-26.1-9.5-35.7-35.6-35.7z" style="fill-rule:evenodd;clip-rule:evenodd;fill:#c8102e"/><path d="M69.1 100.1h3.3v16.6h-3.3V110h-7.6v6.7h-3.3v-16.6h3.3v6.7h7.6v-6.7zm18.9 9.5c0 2.7-1.3 4.1-3.7 4.1-2.4 0-3.7-1.5-3.7-4.3v-9.3h-3.3v9.5c0 4.7 2.5 7.3 7.1 7.3 4.5 0 7.2-2.7 7.2-7.5v-9.3h-3.3v9.5H88zm38.9 1.9-3.7-11.3h-2.8l-3.7 11.3-3.6-11.3h-3.6l5.7 16.6h2.8l3.7-10.9 3.7 10.9h2.8l5.7-16.6h-3.5l-3.5 11.3zm13.2-1.9h6.1v-3.1h-6.1v-3.3h8.9v-3.1h-12.2v16.6h12.6v-3.1h-9.2v-4h-.1zm13.3 7.1h3.3v-16.6h-3.3v16.6zm-55.3-3.5-1.5 3.5h-3.5l7.2-16.6h2.9l7.2 16.6H107l-1.5-3.5h-7.4zm1.2-2.9h5.1l-2.5-5.9-2.6 5.9zM107.4 79c-11.6 0-21.1-9.5-21.1-21.1h2.9c0 10 8.1 18.2 18.2 18.2s18.2-8.1 18.2-18.2h2.9c0 11.7-9.5 21.1-21.1 21.1z" class="st1"/><path d="M218.7 156.2v-12.3l-9.2-16.7h4.3l4.1 8c1.1 2.2 2 4 2.9 6h.1c.8-1.9 1.8-3.8 2.9-6l4.2-8h4.3l-9.7 16.6v12.3h-3.9zM239.3 127.3v17.2c0 6.5 2.9 9.2 6.8 9.2 4.3 0 7.1-2.8 7.1-9.2v-17.2h3.8v16.9c0 8.9-4.7 12.6-11 12.6-5.9 0-10.4-3.4-10.4-12.4v-17.1h3.7zM263.4 127.3h3.7v14h.1c.8-1.1 1.5-2.1 2.3-3.1l8.9-10.9h4.6l-10.5 12.3 11.3 16.7h-4.4l-9.5-14.2-2.8 3.2v11.1h-3.7v-29.1zM286.7 127.3h3.7v25.8h12.4v3.1h-16.1v-28.9zM311.6 147.1l-3 9.1h-3.9l9.8-29h4.5l9.9 29h-4l-3.1-9.1h-10.2zm9.5-2.9-2.8-8.3c-.6-1.9-1.1-3.6-1.5-5.3h-.1c-.4 1.7-.9 3.5-1.5 5.2l-2.8 8.4h8.7zM333.3 127.6c1.6-.3 4.2-.6 6.8-.6 3.7 0 6.1.6 8 2.1 1.5 1.1 2.4 2.8 2.4 5.1 0 2.8-1.8 5.2-4.9 6.4v.1c2.8.7 6 3 6 7.3 0 2.5-1 4.4-2.5 5.8-2 1.8-5.3 2.7-10 2.7-2.6 0-4.6-.2-5.8-.3v-28.6zm3.7 11.9h3.4c4 0 6.3-2.1 6.3-4.9 0-3.4-2.6-4.7-6.4-4.7-1.7 0-2.7.1-3.3.3v9.3zm0 13.9c.7.1 1.8.2 3.1.2 3.9 0 7.4-1.4 7.4-5.6 0-4-3.4-5.6-7.5-5.6h-3v11zM390.5 141.4c0 10-6.1 15.3-13.5 15.3-7.7 0-13-5.9-13-14.7 0-9.2 5.7-15.2 13.5-15.2s13 6 13 14.6zm-22.5.5c0 6.2 3.4 11.7 9.2 11.7 5.9 0 9.3-5.5 9.3-12 0-5.8-3-11.8-9.2-11.8-6.2 0-9.3 5.7-9.3 12.1zM395.3 127.3h3.7v25.8h12.4v3.1h-16.1v-28.9zM419.4 127.3v29h-3.7v-29h3.7zM425.4 151.7c1.7 1 4.1 1.9 6.7 1.9 3.8 0 6.1-2 6.1-4.9 0-2.7-1.5-4.3-5.5-5.8-4.7-1.7-7.7-4.1-7.7-8.2 0-4.5 3.7-7.9 9.4-7.9 3 0 5.1.7 6.4 1.4l-1 3.1c-.9-.5-2.9-1.4-5.5-1.4-4 0-5.5 2.4-5.5 4.3 0 2.7 1.8 4 5.8 5.6 4.9 1.9 7.4 4.3 7.4 8.5 0 4.5-3.3 8.3-10.1 8.3-2.8 0-5.8-.8-7.4-1.8l.9-3.1zM450.8 127.3v12.1h14v-12.1h3.8v29h-3.8v-13.6h-14v13.6h-3.7v-29h3.7z" class="st3"/></svg>