<svg width="257" height="76" viewBox="0 0 257 76" fill="none" xmlns="http://www.w3.org/2000/svg">
<g clip-path="url(#clip0_1071_1445)">
<path d="M246.333 75.2459H9.47435C4.26347 75.2459 0 71.0132 0 65.8402V9.40574C0 4.23256 4.26347 0 9.47435 0H246.333C251.544 0 255.807 4.23256 255.807 9.40574V65.8402C255.807 71.0132 251.544 75.2459 246.333 75.2459Z" fill="#100F0D"/>
<path d="M48.7247 38.9104C48.7452 37.3323 49.1672 35.7851 49.9513 34.4126C50.7358 33.0401 51.8566 31.887 53.2102 31.0605C52.35 29.8407 51.2159 28.8369 49.8972 28.1288C48.5786 27.4207 47.1119 27.0277 45.6133 26.9812C42.4175 26.6479 39.3187 28.8809 37.6901 28.8809C36.0299 28.8809 33.5223 27.0143 30.822 27.0694C29.0753 27.1255 27.3731 27.63 25.8811 28.5338C24.3891 29.4376 23.1583 30.7099 22.3086 32.2267C18.6275 38.5572 21.3732 47.8609 24.8994 52.978C26.6636 55.4838 28.7254 58.2826 31.4233 58.1835C34.0633 58.0746 35.0493 56.5111 38.236 56.5111C41.393 56.5111 42.3182 58.1835 45.0712 58.1204C47.9037 58.0746 49.6884 55.6032 51.3909 53.074C52.6586 51.2885 53.6337 49.3155 54.2808 47.2271C52.6354 46.5359 51.2307 45.3785 50.2423 43.8993C49.2547 42.4205 48.7266 40.6853 48.7247 38.9104Z" fill="#F5F5F5"/>
<path d="M43.5249 23.615C45.0699 21.7731 45.8308 19.4058 45.6463 17.0156C43.2863 17.2618 41.1067 18.3821 39.5411 20.1533C38.7757 21.0185 38.1894 22.0251 37.8161 23.1156C37.4426 24.206 37.289 25.3589 37.3643 26.5083C38.5447 26.5204 39.7123 26.2663 40.7795 25.7651C41.8467 25.2639 42.7853 24.5288 43.5249 23.615Z" fill="#F5F5F5"/>
<path d="M82.0864 48.3404H73.0772L70.9136 54.6864H67.0977L75.6312 31.209H79.5956L88.1291 54.6864H84.2477L82.0864 48.3404ZM74.0101 45.4123H81.1516L77.6309 35.114H77.5324L74.0101 45.4123Z" fill="#F5F5F5"/>
<path d="M106.568 46.1281C106.568 51.4475 103.702 54.8649 99.3766 54.8649C98.2813 54.9217 97.1917 54.671 96.233 54.1416C95.2738 53.6119 94.4844 52.8246 93.9548 51.8702H93.873V60.3484H90.3359V37.5688H93.76V40.4158H93.8247C94.3786 39.4656 95.1814 38.6825 96.1477 38.1498C97.1137 37.6172 98.2075 37.3544 99.312 37.3899C103.686 37.3899 106.568 40.8238 106.568 46.1281ZM102.933 46.1281C102.933 42.6626 101.13 40.3845 98.3787 40.3845C95.6764 40.3845 93.8582 42.7107 93.8582 46.1281C93.8582 49.5769 95.6764 51.8869 98.3787 51.8869C101.13 51.8869 102.933 49.625 102.933 46.1281Z" fill="#F5F5F5"/>
<path d="M125.525 46.1281C125.525 51.4475 122.659 54.8649 118.334 54.8649C117.238 54.9217 116.149 54.671 115.19 54.1412C114.231 53.6119 113.441 52.8246 112.912 51.8702H112.83V60.3484H109.293V37.5688H112.717V40.4158H112.782C113.336 39.4656 114.138 38.6825 115.104 38.1498C116.071 37.6172 117.164 37.3544 118.269 37.3899C122.642 37.3899 125.525 40.8238 125.525 46.1281ZM121.889 46.1281C121.889 42.6626 120.087 40.3845 117.336 40.3845C114.633 40.3845 112.816 42.7107 112.816 46.1281C112.816 49.5769 114.633 51.8869 117.336 51.8869C120.087 51.8869 121.889 49.625 121.889 46.1281Z" fill="#F5F5F5"/>
<path d="M138.062 48.1458C138.324 50.4738 140.601 52.0026 143.713 52.0026C146.694 52.0026 148.839 50.4738 148.839 48.3745C148.839 46.5524 147.545 45.4611 144.482 44.7136L141.419 43.9804C137.079 42.939 135.064 40.9229 135.064 37.6516C135.064 33.6007 138.618 30.8184 143.664 30.8184C148.659 30.8184 152.083 33.6007 152.198 37.6516H148.627C148.413 35.3083 146.463 33.8943 143.614 33.8943C140.765 33.8943 138.815 35.325 138.815 37.4077C138.815 39.0675 140.06 40.0441 143.107 40.7917L145.711 41.4269C150.56 42.5662 152.575 44.5011 152.575 47.9351C152.575 52.3274 149.053 55.0782 143.451 55.0782C138.209 55.0782 134.67 52.392 134.441 48.1454L138.062 48.1458Z" fill="#F5F5F5"/>
<path d="M160.21 33.5195V37.5703H163.487V40.3524H160.21V49.7888C160.21 51.2547 160.866 51.938 162.307 51.938C162.695 51.9312 163.084 51.904 163.47 51.8567V54.6223C162.822 54.7425 162.164 54.797 161.505 54.7849C158.017 54.7849 156.656 53.4834 156.656 50.1635V40.3524H154.15V37.5703H156.656V33.5195H160.21Z" fill="#F5F5F5"/>
<path d="M165.385 46.1313C165.385 40.7454 168.578 37.3613 173.558 37.3613C178.554 37.3613 181.732 40.7454 181.732 46.1313C181.732 51.5316 178.571 54.901 173.558 54.901C168.547 54.901 165.385 51.5316 165.385 46.1313ZM178.128 46.1313C178.128 42.4367 176.424 40.2561 173.558 40.2561C170.692 40.2561 168.989 42.4533 168.989 46.1313C168.989 49.8403 170.692 52.0043 173.558 52.0043C176.424 52.0043 178.128 49.8403 178.128 46.1313Z" fill="#F5F5F5"/>
<path d="M184.654 37.5689H188.028V40.4822H188.11C188.338 39.5724 188.875 38.7681 189.629 38.2051C190.384 37.6419 191.311 37.3541 192.255 37.3897C192.662 37.3885 193.069 37.4324 193.466 37.5209V40.807C192.952 40.6508 192.415 40.5793 191.877 40.5948C191.363 40.574 190.851 40.664 190.376 40.8588C189.9 41.0531 189.472 41.3477 189.122 41.7216C188.772 42.096 188.508 42.5406 188.347 43.0261C188.186 43.5113 188.133 44.0255 188.192 44.533V54.6859H184.654V37.5689Z" fill="#F5F5F5"/>
<path d="M209.767 49.6614C209.292 52.7684 206.245 54.901 202.347 54.901C197.334 54.901 194.223 51.5649 194.223 46.2122C194.223 40.8433 197.351 37.3613 202.198 37.3613C206.966 37.3613 209.965 40.6145 209.965 45.8042V47.0082H197.794V47.2203C197.737 47.8502 197.817 48.4851 198.026 49.0821C198.236 49.6792 198.571 50.2252 199.01 50.6839C199.448 51.1425 199.98 51.5029 200.569 51.7418C201.159 51.9804 201.793 52.092 202.429 52.0689C203.265 52.1464 204.104 51.9543 204.821 51.5206C205.538 51.0866 206.095 50.4347 206.409 49.6614H209.767ZM197.81 44.5526H206.425C206.457 43.9862 206.371 43.4194 206.172 42.8878C205.972 42.3561 205.664 41.871 205.268 41.463C204.871 41.055 204.393 40.7333 203.865 40.5173C203.337 40.3011 202.77 40.1959 202.198 40.2084C201.622 40.205 201.051 40.3147 200.519 40.5317C199.986 40.7488 199.501 41.0683 199.093 41.4721C198.685 41.8759 198.362 42.3561 198.141 42.8848C197.921 43.4137 197.809 43.9805 197.81 44.5526Z" fill="#F5F5F5"/>
<path d="M71.5059 18.307H73.025C73.286 18.3393 73.5512 18.3175 73.8042 18.243C74.0564 18.1684 74.2904 18.0427 74.492 17.8737C74.6929 17.7048 74.8565 17.4963 74.9726 17.2613C75.089 17.0264 75.1548 16.7702 75.1662 16.5087C75.1662 15.4683 74.3779 14.7963 73.0418 14.7963C72.7735 14.7591 72.5011 14.7756 72.2394 14.8448C71.9784 14.914 71.7338 15.0345 71.5199 15.1993C71.3065 15.364 71.1285 15.5695 70.9961 15.8038C70.8633 16.038 70.7796 16.2963 70.7495 16.5632H69.0824C69.1109 16.0786 69.2399 15.6051 69.4605 15.1721C69.6816 14.7392 69.9898 14.356 70.3664 14.0465C70.7427 13.737 71.1794 13.5078 71.6489 13.3732C72.1184 13.2385 72.6107 13.2013 73.0954 13.2639C75.3313 13.2639 76.9056 14.5073 76.9056 16.2973C76.911 16.897 76.7089 17.4803 76.3334 17.9498C75.9579 18.4194 75.4318 18.7469 74.8424 18.8775V19.0104C75.5409 19.0412 76.1988 19.3455 76.6724 19.8566C77.1457 20.3678 77.396 21.0443 77.3686 21.7383C77.3169 22.2372 77.1655 22.7209 76.9231 23.1609C76.6808 23.6009 76.3525 23.9885 75.9575 24.3008C75.5623 24.6132 75.1088 24.8441 74.6225 24.98C74.1363 25.1158 73.6284 25.154 73.127 25.0921C72.6248 25.1601 72.1138 25.127 71.6253 24.9947C71.1361 24.8625 70.6791 24.6338 70.2812 24.3223C69.8828 24.0108 69.5522 23.6228 69.308 23.1816C69.0641 22.7404 68.9123 22.2549 68.8613 21.754H70.5543C70.6567 22.8332 71.655 23.5293 73.127 23.5293C74.5989 23.5293 75.56 22.7474 75.56 21.6452C75.56 20.5272 74.6549 19.8386 73.0733 19.8386H71.5059V18.307Z" fill="#F5F5F5"/>
<path d="M79.2891 22.4106C79.2891 20.8782 80.4396 19.9947 82.4769 19.8692L84.798 19.7362V19.0014C84.798 18.1023 84.2015 17.5946 83.0434 17.5946C82.0991 17.5946 81.4466 17.9389 81.2571 18.5408H79.6197C79.7928 17.0785 81.1792 16.1406 83.1236 16.1406C85.2721 16.1406 86.4838 17.2031 86.4838 19.0014V24.8182H84.854V23.6218H84.72C84.4484 24.0509 84.0672 24.4008 83.6144 24.6356C83.1625 24.8704 82.6557 24.9818 82.1455 24.9584C81.786 24.9956 81.4223 24.9575 81.0783 24.8465C80.734 24.7355 80.4175 24.5542 80.1481 24.3141C79.8791 24.0741 79.6634 23.7807 79.5154 23.4528C79.3674 23.125 79.2902 22.7699 79.2891 22.4106ZM84.798 21.6831V20.9714L82.7052 21.1044C81.5246 21.1828 80.9893 21.5816 80.9893 22.3321C80.9893 23.0983 81.6585 23.5442 82.5788 23.5442C82.8482 23.5713 83.121 23.5443 83.3797 23.4647C83.6384 23.3851 83.8789 23.2547 84.0858 23.081C84.2924 22.9074 84.4625 22.6942 84.585 22.454C84.7075 22.2139 84.7798 21.9517 84.798 21.6831Z" fill="#F5F5F5"/>
<path d="M90.9724 17.7189V24.8179H89.2812V16.3047H94.9241V17.7189L90.9724 17.7189Z" fill="#F5F5F5"/>
<path d="M105.181 20.561C105.181 23.2659 103.804 24.9617 101.641 24.9617C101.11 24.9977 100.579 24.8822 100.112 24.6289C99.6446 24.3756 99.26 23.9949 99.0031 23.5317H98.8692V27.6517H97.1777V16.3081H98.8061V17.715H98.9324C99.1938 17.2357 99.5837 16.8374 100.059 16.5642C100.533 16.291 101.075 16.1535 101.624 16.1669C103.804 16.1669 105.181 17.8553 105.181 20.561ZM103.442 20.561C103.442 18.7627 102.585 17.6762 101.152 17.6762C99.7283 17.6762 98.8376 18.7858 98.8376 20.5684C98.8376 22.3427 99.7279 23.4533 101.144 23.4533C102.585 23.4533 103.442 22.3667 103.442 20.561Z" fill="#F5F5F5"/>
<path d="M107.432 27.8671V26.4205C107.615 26.4436 107.8 26.4541 107.985 26.4519C108.345 26.4784 108.702 26.3718 108.988 26.1525C109.275 25.9332 109.469 25.6168 109.534 25.2638L109.661 24.8493L106.559 16.3047H108.401L110.55 23.0667H110.683L112.825 16.3047H114.618L111.423 25.1696C110.691 27.2412 109.88 27.9059 108.133 27.9059C107.992 27.9058 107.59 27.8901 107.432 27.8671Z" fill="#F5F5F5"/>
<path d="M115.932 22.4029H117.616C117.781 23.1534 118.489 23.5448 119.48 23.5448C120.606 23.5448 121.298 23.0518 121.298 22.2857C121.298 21.465 120.677 21.0736 119.48 21.0736H118.197V19.7682H119.458C120.48 19.7682 121 19.3778 121 18.666C121 18.041 120.496 17.5638 119.458 17.5638C118.511 17.5638 117.82 17.9626 117.71 18.6346H116.08C116.202 17.8624 116.624 17.1685 117.256 16.7023C117.888 16.236 118.678 16.0345 119.458 16.1412C121.495 16.1412 122.66 17.0561 122.66 18.4943C122.67 18.8948 122.54 19.2864 122.294 19.6037C122.048 19.9209 121.699 20.1446 121.307 20.2372V20.3702C121.774 20.43 122.203 20.6581 122.512 21.0112C122.821 21.3643 122.989 21.8178 122.984 22.2857C122.984 23.904 121.597 24.9748 119.48 24.9748C117.608 24.9747 116.088 24.1227 115.932 22.4029Z" fill="#F5F5F5"/>
<path d="M125.418 24.8179V16.3047H127.094V22.1602H127.228L131.178 16.3047H132.854V24.8179H131.178V18.9311H131.052L127.094 24.8179L125.418 24.8179Z" fill="#F5F5F5"/>
<path d="M142.087 17.7189H139.388V24.8178H137.695V17.7189H134.996V16.3047H142.087V17.7189Z" fill="#F5F5F5"/>
<path d="M151.199 22.5197C150.969 23.2977 150.47 23.9706 149.791 24.4208C149.112 24.871 148.295 25.0698 147.484 24.9827C146.919 24.9975 146.358 24.89 145.839 24.6679C145.321 24.4456 144.857 24.114 144.48 23.6959C144.104 23.2778 143.823 22.7833 143.658 22.2467C143.493 21.7101 143.448 21.1443 143.525 20.5885C143.45 20.031 143.496 19.4639 143.66 18.9257C143.825 18.3875 144.104 17.8907 144.479 17.469C144.853 17.0473 145.315 16.7104 145.832 16.4813C146.349 16.2521 146.91 16.136 147.477 16.1408C149.861 16.1408 151.301 17.7591 151.301 20.4324V21.0187H145.25V21.1129C145.223 21.4253 145.262 21.7399 145.365 22.0364C145.468 22.3329 145.632 22.6048 145.847 22.8344C146.062 23.0641 146.323 23.2466 146.613 23.3702C146.903 23.4937 147.216 23.5555 147.532 23.5517C147.937 23.5998 148.346 23.5273 148.709 23.3435C149.072 23.1597 149.371 22.873 149.57 22.5197L151.199 22.5197ZM145.25 19.7761H149.577C149.598 19.4906 149.559 19.2037 149.462 18.934C149.366 18.6643 149.213 18.4177 149.014 18.21C148.816 18.0023 148.576 17.8381 148.31 17.728C148.044 17.618 147.757 17.5644 147.469 17.5707C147.176 17.5668 146.886 17.6211 146.615 17.7306C146.344 17.84 146.098 18.0024 145.891 18.2079C145.684 18.4135 145.52 18.6583 145.41 18.9276C145.3 19.197 145.246 19.4855 145.25 19.7761Z" fill="#F5F5F5"/>
<path d="M158.379 16.3047H162.244C163.92 16.3047 164.903 17.1484 164.903 18.4694C164.906 18.8886 164.763 19.2959 164.5 19.6233C164.236 19.9506 163.867 20.1781 163.455 20.2677V20.4006C163.956 20.432 164.425 20.6532 164.766 21.0184C165.107 21.3837 165.294 21.8651 165.288 22.3632C165.288 23.8486 164.163 24.8179 162.282 24.8179H158.379V16.3047ZM160.056 17.5943V19.7987H161.732C162.754 19.7987 163.243 19.4083 163.243 18.6882C163.243 18.0245 162.818 17.5943 161.92 17.5943H160.056ZM160.056 21.0339V23.5283H162.061C163.061 23.5283 163.597 23.0898 163.597 22.2848C163.597 21.4328 162.991 21.034 161.849 21.034L160.056 21.0339Z" fill="#F5F5F5"/>
</g>
<defs>
<clipPath id="clip0_1071_1445">
<rect width="256.045" height="75.2459" fill="white"/>
</clipPath>
</defs>
</svg>
