<svg width="257" height="76" viewBox="0 0 257 76" fill="none" xmlns="http://www.w3.org/2000/svg">
<g clip-path="url(#clip0_1071_1492)">
<path d="M246.333 75.2459H9.47435C4.26347 75.2459 0 71.0132 0 65.8402V9.40574C0 4.23256 4.26347 0 9.47435 0H246.333C251.544 0 255.807 4.23256 255.807 9.40574V65.8402C255.807 71.0132 251.544 75.2459 246.333 75.2459Z" fill="#100F0D"/>
<path d="M94.3814 51.1383H85.4366L83.2516 57.0449H79.3379L88.0796 34.8828H91.7894L100.735 57.0449H96.6181L94.3814 51.1383ZM86.5551 48.1095H93.213L90.8242 41.7484C90.5194 40.8905 90.1633 39.8805 89.8586 38.8206C89.5534 39.7795 89.2487 40.7388 88.9436 41.6981L86.5551 48.1095Z" fill="#F5F5F5"/>
<path d="M102.309 44.5797C102.309 43.3682 102.258 42.0051 102.207 40.541H105.765C105.917 41.2477 105.968 41.9042 106.019 42.6109C107.493 40.9955 109.17 40.1875 111.101 40.1875C112.219 40.1875 113.236 40.4401 114.201 40.9955C115.167 41.5506 115.929 42.409 116.488 43.6205C117.047 44.8319 117.353 46.3467 117.353 48.1639C117.353 50.0825 116.997 51.7485 116.336 53.1113C115.675 54.4744 114.76 55.5346 113.541 56.1911C112.372 56.8978 111 57.2509 109.424 57.2509C108.306 57.2509 107.188 57.049 106.07 56.6958V63.612L102.258 63.9149V44.5797H102.309ZM112.321 53.0103C113.083 52.0007 113.49 50.4864 113.49 48.4668C113.49 46.5989 113.185 45.2864 112.524 44.4788C111.863 43.6711 111.05 43.2166 109.983 43.2166C109.221 43.2166 108.56 43.3682 107.95 43.7214C107.34 44.075 106.731 44.5291 106.171 45.1352V53.9696C106.527 54.1715 106.984 54.3231 107.493 54.4241C108.001 54.5251 108.509 54.5753 108.967 54.5753C110.39 54.5753 111.508 54.0706 112.321 53.0103Z" fill="#F5F5F5"/>
<path d="M119.633 44.5797C119.633 43.3682 119.582 42.0051 119.531 40.541H123.089C123.241 41.2477 123.292 41.9042 123.343 42.6109C124.817 40.9955 126.494 40.1875 128.425 40.1875C129.543 40.1875 130.56 40.4401 131.525 40.9955C132.491 41.5506 133.253 42.409 133.812 43.6205C134.372 44.8319 134.677 46.3467 134.677 48.1639C134.677 50.0825 134.321 51.7485 133.66 53.1113C132.999 54.4744 132.085 55.5346 130.865 56.1911C129.696 56.8978 128.324 57.2509 126.748 57.2509C125.63 57.2509 124.512 57.049 123.394 56.6958V63.612L119.582 63.9149V44.5797H119.633ZM129.645 53.0103C130.407 52.0007 130.814 50.4864 130.814 48.4668C130.814 46.5989 130.509 45.2864 129.848 44.4788C129.188 43.6711 128.375 43.2166 127.307 43.2166C126.545 43.2166 125.884 43.3682 125.274 43.7214C124.664 44.075 124.054 44.5291 123.496 45.1352V53.9696C123.851 54.1715 124.309 54.3231 124.817 54.4241C125.325 54.5251 125.833 54.5753 126.291 54.5753C127.714 54.5753 128.883 54.0706 129.645 53.0103Z" fill="#F5F5F5"/>
<path d="M141.647 55.9892C140.02 55.0806 138.75 53.8184 137.886 52.1021C137.022 50.4361 136.564 48.4166 136.564 46.1448C136.564 43.6712 137.073 41.551 138.089 39.8348C139.106 38.1181 140.478 36.8056 142.257 35.9473C143.985 35.0891 145.967 34.6348 148.152 34.6348C149.423 34.6348 150.643 34.7862 151.812 35.0386C152.98 35.3415 154.048 35.6949 155.064 36.1998L154.099 39.1277C152.066 38.1688 150.134 37.7143 148.305 37.7143C146.78 37.7143 145.408 38.0678 144.239 38.7238C143.07 39.3802 142.155 40.3395 141.545 41.6013C140.885 42.8635 140.58 44.4285 140.58 46.1955C140.58 47.7605 140.834 49.1739 141.342 50.3854C141.85 51.5973 142.613 52.5562 143.68 53.3136C144.747 54.0203 146.119 54.3738 147.746 54.3738C148.508 54.3738 149.219 54.3232 149.982 54.1719C150.744 54.0203 151.405 53.8691 152.066 53.6165V49.1237H146.933V46.1955H155.776V55.5351C154.505 56.1408 153.184 56.5949 151.761 56.8978C150.338 57.2007 148.966 57.3523 147.593 57.3523C145.256 57.3523 143.324 56.8978 141.647 55.9892Z" fill="#F5F5F5"/>
<path d="M169.144 57.0457C168.991 56.3893 168.941 55.6826 168.89 54.8749C168.28 55.5816 167.568 56.1371 166.602 56.6419C165.688 57.1467 164.621 57.3486 163.401 57.3486C162.435 57.3486 161.571 57.1467 160.809 56.7931C160.046 56.44 159.386 55.8845 158.928 55.1271C158.471 54.3701 158.217 53.4611 158.217 52.4013C158.217 50.7856 158.776 49.5238 159.945 48.5645C161.114 47.6052 163.045 47.1511 165.739 47.1511C166.755 47.1511 167.772 47.2014 168.737 47.353V47.0497C168.737 45.586 168.432 44.5761 167.822 43.9703C167.213 43.3646 166.298 43.0617 165.129 43.0617C164.315 43.0617 163.452 43.1627 162.537 43.4152C161.622 43.6674 160.809 43.92 160.097 44.2732L159.488 41.5473C160.148 41.2444 161.063 40.9416 162.181 40.689C163.299 40.4364 164.468 40.2852 165.688 40.2852C167.111 40.2852 168.331 40.4871 169.347 40.9416C170.364 41.3957 171.126 42.1024 171.685 43.1627C172.244 44.2229 172.549 45.6363 172.549 47.4033V53.9663C172.549 54.673 172.6 55.6826 172.65 57.0457H169.144ZM166.907 53.9663C167.721 53.6128 168.331 53.108 168.839 52.5525V49.4731C167.822 49.3721 166.958 49.3215 166.298 49.3215C164.722 49.3215 163.655 49.5741 163.045 50.0788C162.435 50.5836 162.13 51.2401 162.13 52.0984C162.13 52.9061 162.334 53.5118 162.791 53.9156C163.248 54.3195 163.807 54.5214 164.57 54.5214C165.332 54.572 166.094 54.3701 166.907 53.9663Z" fill="#F5F5F5"/>
<path d="M175.543 53.1099V33.6232L179.304 33.3203V52.4535C179.304 53.1602 179.405 53.665 179.66 53.9679C179.914 54.2707 180.269 54.4224 180.829 54.4224C181.083 54.4224 181.387 54.3717 181.845 54.2707L182.302 56.997C181.947 57.1486 181.489 57.2496 180.981 57.3505C180.473 57.4515 179.965 57.5018 179.507 57.5018C176.864 57.3505 175.543 55.9367 175.543 53.1099Z" fill="#F5F5F5"/>
<path d="M184.996 53.1099V33.6232L188.757 33.3203V52.4535C188.757 53.1602 188.859 53.665 189.113 53.9679C189.367 54.2707 189.723 54.4224 190.282 54.4224C190.536 54.4224 190.841 54.3717 191.299 54.2707L191.756 56.997C191.4 57.1486 190.943 57.2496 190.434 57.3505C189.926 57.4515 189.418 57.5018 188.96 57.5018C186.318 57.3505 184.996 55.9367 184.996 53.1099Z" fill="#F5F5F5"/>
<path d="M207.313 49.2745H196.437C196.589 52.7074 198.267 54.4744 201.417 54.4744C202.18 54.4744 202.993 54.3734 203.806 54.1715C204.619 53.9696 205.382 53.717 206.144 53.4141L206.958 55.9888C205.077 56.8978 202.993 57.3519 200.706 57.3519C198.927 57.3519 197.454 56.9987 196.234 56.3423C195.014 55.6859 194.099 54.727 193.489 53.4648C192.879 52.2026 192.574 50.7386 192.574 48.9716C192.574 47.1544 192.879 45.5893 193.54 44.2769C194.201 42.9644 195.065 41.9545 196.234 41.2477C197.403 40.541 198.724 40.1875 200.249 40.1875C201.824 40.1875 203.145 40.541 204.162 41.2984C205.229 42.0051 205.992 43.0147 206.5 44.2262C207.008 45.4381 207.262 46.8008 207.262 48.2649V49.2745H207.313ZM203.603 46.9018C203.552 45.5893 203.196 44.5797 202.587 43.9233C201.977 43.2673 201.214 42.9137 200.198 42.9137C199.232 42.9137 198.419 43.2673 197.809 43.9233C197.148 44.5797 196.742 45.5893 196.539 46.8515H203.603V46.9018Z" fill="#F5F5F5"/>
<path d="M210.156 44.677C210.156 43.7684 210.105 42.4053 210.055 40.5377H213.612C213.663 40.9919 213.714 41.5473 213.765 42.2034C213.816 42.8598 213.866 43.3646 213.866 43.7684C214.324 43.0617 214.73 42.4559 215.188 41.9512C215.594 41.4464 216.103 41.0425 216.662 40.7397C217.221 40.4364 217.882 40.2852 218.593 40.2852C219.203 40.2852 219.66 40.3354 220.118 40.4871L219.66 43.7684C219.305 43.6674 218.898 43.6172 218.44 43.6172C217.526 43.6172 216.763 43.8191 216.103 44.2732C215.442 44.7277 214.73 45.4851 213.968 46.4946V57.096H210.207V44.677H210.156Z" fill="#F5F5F5"/>
<path d="M222.245 63.81C221.686 63.7091 221.229 63.6081 220.873 63.4565L221.584 60.7302C221.839 60.7809 222.144 60.8819 222.55 60.9325C222.957 60.9828 223.313 61.0335 223.668 61.0335C225.346 61.0335 226.616 59.9732 227.429 57.8025L227.684 57.1967L221.584 40.5874H225.65L228.751 49.8767C229.259 51.4413 229.564 52.7035 229.716 53.5112C230.021 52.2997 230.326 51.1385 230.732 49.927L233.833 40.5371H237.645L231.546 57.247C230.987 58.812 230.326 60.1245 229.666 61.0838C229.005 62.0431 228.192 62.7498 227.327 63.2546C226.413 63.7091 225.346 63.9613 224.024 63.9613C223.414 63.9613 222.805 63.911 222.245 63.81Z" fill="#F5F5F5"/>
<path d="M81.1702 24.6867C80.3065 24.2324 79.6963 23.5256 79.239 22.6674C78.7813 21.8091 78.5781 20.7995 78.5781 19.6384C78.5781 18.4268 78.8327 17.3666 79.2896 16.4579C79.7473 15.5492 80.4587 14.8424 81.3227 14.3881C82.2377 13.8833 83.2539 13.6309 84.4736 13.6309C85.6428 13.6309 86.6084 13.8833 87.4724 14.3376C88.2854 14.792 88.9462 15.4987 89.4035 16.357C89.8612 17.2152 90.0644 18.2248 90.0644 19.3355C90.0644 20.5471 89.8102 21.6072 89.3529 22.5159C88.8953 23.4246 88.1838 24.1314 87.3198 24.5857C86.4558 25.0906 85.3886 25.343 84.2195 25.343C83.0507 25.3935 82.0342 25.1411 81.1702 24.6867ZM86.3542 23.2731C86.9131 22.9198 87.3198 22.4149 87.6245 21.7587C87.8791 21.1024 88.0312 20.3451 88.0312 19.5374C88.0312 18.7297 87.9297 17.9724 87.6759 17.3666C87.4214 16.7103 87.066 16.2055 86.5068 15.8521C85.9475 15.4483 85.287 15.2968 84.423 15.2968C83.61 15.2968 82.9492 15.4987 82.3903 15.8521C81.831 16.256 81.4243 16.7608 81.1196 17.4171C80.8144 18.0734 80.7129 18.7801 80.7129 19.5879C80.7129 20.3956 80.8654 21.1529 81.1196 21.8091C81.3733 22.4654 81.78 22.9703 82.3393 23.3741C82.8986 23.778 83.5586 23.9295 84.3724 23.9295C85.0839 23.8285 85.7953 23.677 86.3542 23.2731Z" fill="#F5F5F5"/>
<path d="M94.0732 15.4472H90.5156L90.6682 13.7812H99.6636L99.4605 15.4472H96.0554V25.241H94.0732V15.4472Z" fill="#F5F5F5"/>
<path d="M110.337 25.242H108.101L104.696 20.1937H103.324V25.242H101.342V13.8328H103.324V18.5277H104.34L106.729 15.0949C107.085 14.59 107.44 14.2366 107.796 13.9842C108.152 13.7318 108.609 13.6309 109.117 13.6309C109.575 13.6309 109.982 13.6813 110.287 13.8328L109.88 15.3473C109.677 15.2463 109.474 15.1958 109.27 15.1958C109.016 15.1958 108.813 15.2463 108.66 15.3473C108.508 15.4483 108.304 15.6502 108.152 15.9026L106.068 18.8811L110.337 25.242Z" fill="#F5F5F5"/>
<path d="M111.857 13.8301H114.958C116.432 13.8301 117.55 14.133 118.312 14.7388C119.075 15.3446 119.481 16.2028 119.481 17.3134C119.481 18.0707 119.329 18.727 118.973 19.2823C118.617 19.8376 118.16 20.292 117.499 20.5949C116.889 20.8977 116.177 21.0492 115.364 21.0492C114.907 21.0492 114.399 20.9987 113.84 20.8977V25.2393H111.857V13.8301ZM116.838 18.9289C117.245 18.525 117.448 18.0202 117.448 17.3134C117.448 16.6067 117.245 16.1018 116.787 15.7989C116.381 15.496 115.72 15.3446 114.907 15.3446H113.84V19.3833C114.348 19.4842 114.704 19.4842 114.958 19.4842C115.771 19.4842 116.432 19.2823 116.838 18.9289Z" fill="#F5F5F5"/>
<path d="M123.299 24.6867C122.435 24.2324 121.825 23.5256 121.368 22.6674C120.91 21.8091 120.707 20.7995 120.707 19.6384C120.707 18.4268 120.961 17.3666 121.418 16.4579C121.876 15.5492 122.588 14.8424 123.451 14.3881C124.366 13.8833 125.383 13.6309 126.603 13.6309C127.771 13.6309 128.737 13.8833 129.601 14.3376C130.414 14.792 131.075 15.4987 131.532 16.357C131.99 17.2152 132.193 18.2248 132.193 19.3355C132.193 20.5471 131.939 21.6072 131.481 22.5159C131.024 23.4246 130.312 24.1314 129.449 24.5857C128.585 25.0906 127.517 25.343 126.348 25.343C125.129 25.3935 124.112 25.1411 123.299 24.6867ZM128.432 23.2731C128.991 22.9198 129.398 22.4149 129.702 21.7587C129.957 21.1024 130.109 20.3451 130.109 19.5374C130.109 18.7297 130.008 17.9724 129.753 17.3666C129.499 16.7103 129.144 16.2055 128.585 15.8521C128.026 15.4483 127.365 15.2968 126.501 15.2968C125.688 15.2968 125.027 15.4987 124.468 15.8521C123.909 16.256 123.502 16.7608 123.197 17.4171C122.892 18.0734 122.791 18.7801 122.791 19.5879C122.791 20.3956 122.943 21.1529 123.197 21.8091C123.451 22.4654 123.858 22.9703 124.417 23.3741C124.976 23.778 125.637 23.9295 126.45 23.9295C127.212 23.8285 127.873 23.677 128.432 23.2731Z" fill="#F5F5F5"/>
<path d="M142.253 25.2393V18.9794C142.253 18.1717 142.304 17.263 142.354 16.2533L136.56 25.2393H134.375V13.8301H136.205V20.3425C136.205 21.0492 136.205 21.8065 136.154 22.6647L141.846 13.8301H144.133V25.2393H142.253ZM137.78 12.8204C137.374 12.6185 137.018 12.3156 136.814 11.9622C136.611 11.6088 136.459 11.2554 136.408 10.8516H137.831C137.983 11.7098 138.492 12.1137 139.305 12.1137C140.118 12.1137 140.626 11.7098 140.83 10.8516H142.253C142.202 11.2554 142.049 11.6088 141.846 11.9622C141.643 12.3156 141.287 12.568 140.88 12.8204C140.474 13.0728 139.915 13.1738 139.305 13.1738C138.746 13.1738 138.187 13.0223 137.78 12.8204Z" fill="#F5F5F5"/>
<path d="M149.372 15.4472H145.814L145.967 13.7812H154.912L154.708 15.4472H151.303V25.241H149.321V15.4472H149.372Z" fill="#F5F5F5"/>
<path d="M156.584 13.832H163.343L163.14 15.4475H158.566V18.5775H162.886V20.092H158.566V23.5753H163.394L163.242 25.1908H156.584V13.832Z" fill="#F5F5F5"/>
<path d="M177.273 19.5852C177.68 19.8376 177.985 20.1405 178.239 20.5949C178.493 20.9987 178.594 21.5036 178.594 22.0084C178.594 22.6647 178.442 23.22 178.137 23.6743C177.832 24.1792 177.324 24.5325 176.714 24.785C176.104 25.0374 175.342 25.1888 174.478 25.1888H170.717V13.8301H174.325C175.545 13.8301 176.46 14.0825 177.07 14.5369C177.68 14.9912 177.985 15.6475 177.985 16.4552C177.985 17.1115 177.781 17.7173 177.425 18.1717C177.019 18.626 176.511 18.9289 175.901 19.1308C176.409 19.1813 176.866 19.3328 177.273 19.5852ZM172.699 18.4746H173.919C174.325 18.4746 174.681 18.3736 174.986 18.2221C175.291 18.0707 175.545 17.8183 175.698 17.5659C175.85 17.3134 175.952 17.0105 175.952 16.6572C175.952 16.2028 175.799 15.8494 175.443 15.597C175.088 15.3446 174.63 15.2436 173.97 15.2436H172.648V18.4746H172.699ZM176.002 23.2705C176.409 22.9171 176.612 22.4627 176.612 21.8569C176.612 21.2007 176.409 20.7463 175.952 20.3929C175.494 20.0395 174.884 19.8881 174.02 19.8881H172.699V23.7248H174.173C174.986 23.7753 175.596 23.6238 176.002 23.2705Z" fill="#F5F5F5"/>
<path fill-rule="evenodd" clip-rule="evenodd" d="M51.3841 13.8789H30.2925C20.3311 13.8789 16.7227 17.5137 16.7227 27.358V48.3087C16.7227 58.2033 20.3819 61.7876 30.2925 61.7876H51.3841C61.3455 61.7876 64.9538 58.1527 64.9538 48.3087V27.358C65.0047 17.5137 61.3455 13.8789 51.3841 13.8789Z" fill="#C8102E"/>
<path d="M26.2788 37.8594H27.5494V44.1192H26.2788V41.5952H23.3819V44.1192H22.1113V37.8594H23.3819V40.3833H26.2788V37.8594ZM33.4957 41.4436C33.4957 42.4532 32.9875 43.0086 32.0727 43.0086C31.1579 43.0086 30.6496 42.4532 30.6496 41.3933V37.8594H29.3791V41.4436C29.3791 43.2105 30.3447 44.2201 32.0727 44.2201C33.8007 44.2201 34.8172 43.2105 34.8172 41.3933V37.8594H33.5466V41.4436H33.4957ZM48.2851 42.1503L46.8622 37.8594H45.7947L44.3718 42.1503L42.9995 37.8594H41.6272L43.8125 44.1192H44.8801L46.3034 39.9795L47.7263 44.1192H48.7938L50.9791 37.8594H49.6574L48.2851 42.1503ZM53.3166 41.4436H55.6549V40.2824H53.3166V39.0206H56.7217V37.8594H52.0969V44.1192H56.8746V42.9579H53.3676V41.4436H53.3166ZM58.3485 44.1192H59.6192V37.8594H58.3485V44.1192ZM37.3075 42.8067L36.7484 44.1192H35.427L38.1716 37.8594H39.2897L42.0343 44.1192H40.7126L40.1537 42.8067H37.3075ZM37.7649 41.6962H39.696L38.7304 39.4747L37.7649 41.6962Z" fill="#F5F5F5"/>
<path d="M40.8621 29.8826C36.4405 29.8826 32.832 26.2983 32.832 21.9062H33.9501C33.9501 25.6925 37.0504 28.772 40.8621 28.772C44.6739 28.772 47.7738 25.6925 47.7738 21.9062H48.8924C48.8924 26.2983 45.2838 29.8826 40.8621 29.8826Z" fill="#F5F5F5"/>
</g>
<defs>
<clipPath id="clip0_1071_1492">
<rect width="256.045" height="75.2459" fill="white"/>
</clipPath>
</defs>
</svg>
