<svg width="257" height="76" viewBox="0 0 257 76" fill="none" xmlns="http://www.w3.org/2000/svg">
<g clip-path="url(#clip0_1071_1467)">
<path d="M246.333 75.2459H9.47435C4.26347 75.2459 0 71.0132 0 65.8402V9.40574C0 4.23256 4.26347 0 9.47435 0H246.333C251.544 0 255.807 4.23256 255.807 9.40574V65.8402C255.807 71.0132 251.544 75.2459 246.333 75.2459Z" fill="#100F0D"/>
<path d="M39.2366 36.5371L19.0742 57.794C19.075 57.7985 19.0765 57.8023 19.0772 57.8065C19.6956 60.1145 21.8179 61.8142 24.3369 61.8142C25.3439 61.8142 26.2893 61.5438 27.1 61.0693L27.1644 61.0318L49.86 48.0234L39.2366 36.5371Z" fill="#EB3131"/>
<path d="M59.6393 32.917L59.6203 32.9038L49.8221 27.2617L38.7832 37.0188L49.8605 48.0206L59.6069 42.4346C61.3159 41.5181 62.4759 39.7288 62.4759 37.6654C62.4759 35.6168 61.3315 33.8363 59.6393 32.917Z" fill="#F6B60B"/>
<path d="M19.0716 17.4512C18.9504 17.8951 18.8867 18.3602 18.8867 18.843V56.4051C18.8867 56.8872 18.9497 57.3538 19.0723 57.7962L39.9285 37.0828L19.0716 17.4512Z" fill="#5778C5"/>
<path d="M39.3861 37.6236L49.8223 27.2603L27.1525 14.2048C26.3285 13.7146 25.3668 13.4316 24.3377 13.4316C21.8188 13.4316 19.6935 15.1343 19.075 17.4453C19.0742 17.4475 19.0742 17.449 19.0742 17.4511L39.3861 37.6236Z" fill="#3BAD49"/>
<path d="M202.915 56.6265H206.45V33.1091H202.915V56.6265ZM234.746 41.5807L230.695 51.7763H230.574L226.369 41.5807H222.562L228.867 55.8313L225.273 63.7578H228.96L238.676 41.5807H234.746ZM214.705 53.955C213.546 53.955 211.933 53.3807 211.933 51.9578C211.933 50.1428 213.944 49.4471 215.679 49.4471C217.233 49.4471 217.963 49.7798 218.907 50.234C218.633 52.4119 216.745 53.955 214.705 53.955ZM215.131 41.0661C212.573 41.0661 209.923 42.1861 208.827 44.6669L211.963 45.9676C212.633 44.6669 213.881 44.2427 215.192 44.2427C217.019 44.2427 218.877 45.3324 218.907 47.2688V47.5107C218.268 47.1474 216.898 46.6033 215.222 46.6033C211.842 46.6033 208.399 48.4481 208.399 51.8977C208.399 55.0444 211.171 57.0715 214.277 57.0715C216.654 57.0715 217.963 56.0128 218.786 54.7725H218.907V56.5875H222.318V47.5709C222.318 43.3964 219.182 41.0661 215.131 41.0661ZM193.291 44.4434H188.265V36.3822H193.291C195.933 36.3822 197.433 38.555 197.433 40.4127C197.433 42.2352 195.933 44.4434 193.291 44.4434ZM193.2 33.1091H184.733V56.6265H188.265V47.7164H193.2C197.117 47.7164 200.967 44.8998 200.967 40.4127C200.967 35.9259 197.117 33.1091 193.2 33.1091ZM147.026 53.9596C144.585 53.9596 142.541 51.9291 142.541 49.1404C142.541 46.3223 144.585 44.2612 147.026 44.2612C149.436 44.2612 151.328 46.3223 151.328 49.1404C151.328 51.9291 149.436 53.9596 147.026 53.9596ZM151.084 42.8973H150.962C150.169 41.9581 148.643 41.1096 146.721 41.1096C142.693 41.1096 139.002 44.6249 139.002 49.1404C139.002 53.6261 142.693 57.1112 146.721 57.1112C148.643 57.1112 150.169 56.2623 150.962 55.2932H151.084V56.445C151.084 59.5062 149.436 61.1427 146.782 61.1427C144.616 61.1427 143.273 59.5966 142.723 58.2936L139.642 59.5663C140.527 61.688 142.877 64.2944 146.782 64.2944C150.931 64.2944 154.44 61.8695 154.44 55.9598V41.5943H151.084V42.8973ZM156.881 56.6265H160.42V33.1084H156.881V56.6265ZM165.638 48.8678C165.546 45.7763 168.048 44.2007 169.848 44.2007C171.252 44.2007 172.442 44.8976 172.837 45.8984L165.638 48.8678ZM176.622 46.2013C175.951 44.4124 173.906 41.1096 169.726 41.1096C165.576 41.1096 162.129 44.3523 162.129 49.1106C162.129 53.5958 165.546 57.1112 170.122 57.1112C173.815 57.1112 175.951 54.8686 176.835 53.5656L174.089 51.7468C173.175 53.0808 171.923 53.9596 170.122 53.9596C168.322 53.9596 167.041 53.141 166.217 51.5351L176.987 47.1099L176.622 46.2013ZM90.8142 43.5643V46.9587H98.9909C98.7466 48.8678 98.1059 50.2619 97.1293 51.2318C95.94 52.4142 94.0788 53.7172 90.8142 53.7172C85.7796 53.7172 81.8438 49.6865 81.8438 44.6858C81.8438 39.6852 85.7796 35.654 90.8142 35.654C93.5298 35.654 95.5124 36.715 96.9771 38.0789L99.3877 35.6849C97.3435 33.7448 94.6278 32.2598 90.8142 32.2598C83.9184 32.2598 78.1211 37.8365 78.1211 44.6858C78.1211 51.5351 83.9184 57.1112 90.8142 57.1112C94.5365 57.1112 97.3435 55.8997 99.5399 53.6261C101.797 51.3831 102.5 48.2314 102.5 45.6859C102.5 44.8976 102.439 44.1708 102.316 43.5643H90.8142ZM111.796 53.9596C109.354 53.9596 107.249 51.9593 107.249 49.1106C107.249 46.2312 109.354 44.2612 111.796 44.2612C114.236 44.2612 116.341 46.2312 116.341 49.1106C116.341 51.9593 114.236 53.9596 111.796 53.9596ZM111.796 41.1096C107.341 41.1096 103.71 44.4733 103.71 49.1106C103.71 53.7172 107.341 57.1112 111.796 57.1112C116.25 57.1112 119.881 53.7172 119.881 49.1106C119.881 44.4733 116.25 41.1096 111.796 41.1096ZM129.434 53.9596C126.993 53.9596 124.888 51.9593 124.888 49.1106C124.888 46.2312 126.993 44.2612 129.434 44.2612C131.874 44.2612 133.98 46.2312 133.98 49.1106C133.98 51.9593 131.874 53.9596 129.434 53.9596ZM129.434 41.1096C124.979 41.1096 121.349 44.4733 121.349 49.1106C121.349 53.7172 124.979 57.1112 129.434 57.1112C133.888 57.1112 137.519 53.7172 137.519 49.1106C137.519 44.4733 133.888 41.1096 129.434 41.1096Z" fill="#F5F5F5"/>
<path d="M82.7727 18.9386C82.7948 20.7242 82.4349 22.1644 81.6949 23.258H87.4394V14.7441H82.7727V18.9386ZM80.1541 27.0401H78.7578V23.258H79.8691C80.853 22.4158 81.3339 20.977 81.3141 18.9386V13.3574H88.9003V23.258H90.1695V27.0401H88.7725V24.6446H80.1541V27.0401Z" fill="#F5F5F5"/>
<path d="M82.7747 18.9392L82.5852 18.9414L82.5868 19.0934C82.586 20.7829 82.2307 22.1321 81.539 23.1534L81.3408 23.4467H87.6304V14.5566H82.5852V18.9407V18.9414L82.7747 18.9392H82.9642V14.9328H87.2519V23.0705H81.6969V23.2586L81.8536 23.363C82.5985 22.2621 82.9657 20.8335 82.9657 19.0934L82.9642 18.9369L82.7747 18.9392ZM80.1557 27.0407V26.8526H78.9492V23.4467H79.8711H79.9411L79.9943 23.4012C81.0185 22.5238 81.5059 21.0621 81.5059 19.0626L81.5051 18.9377V18.9392V13.5462H88.7128V23.4467H89.982V26.8526H88.9635V24.6452V24.4571H79.9666V27.0407H80.1557H80.3455V24.8333H88.585V27.0407V27.2288H90.1711H90.3606V23.0705H89.0917V13.1699H81.1266V18.9399V18.9407L81.1273 19.0626C81.1266 21.0093 80.6514 22.3445 79.7474 23.1152L79.8711 23.2586V23.0705H78.7598H78.5703V27.2288H80.1557H80.3455V27.0407H80.1557Z" fill="#F5F5F5"/>
<path d="M94.3026 22.2399C95.1445 23.0857 96.1729 23.5082 97.39 23.5082C98.6067 23.5082 99.6366 23.0857 100.476 22.2399C101.318 21.3941 101.74 20.313 101.74 18.9999C101.74 17.6869 101.318 16.6057 100.476 15.7599C99.6366 14.9141 98.6067 14.4916 97.39 14.4916C96.1729 14.4916 95.1445 14.9141 94.3026 15.7599C93.4629 16.6057 93.0414 17.6869 93.0414 18.9999C93.0414 20.313 93.4629 21.3941 94.3026 22.2399ZM101.556 23.1848C100.439 24.326 99.0507 24.8956 97.39 24.8956C95.7289 24.8956 94.3395 24.326 93.2248 23.1848C92.1078 22.045 91.5508 20.6497 91.5508 18.9999C91.5508 17.3501 92.1078 15.9547 93.2248 14.815C94.3395 13.6737 95.7289 13.1035 97.39 13.1035C99.0411 13.1035 100.427 13.6767 101.549 14.8223C102.67 15.968 103.23 17.3605 103.23 18.9999C103.23 20.6497 102.672 22.045 101.556 23.1848Z" fill="#F5F5F5"/>
<path d="M94.3046 22.2405L94.1699 22.3728C95.0419 23.2525 96.1304 23.6993 97.3919 23.697C98.6524 23.6993 99.7428 23.2525 100.612 22.3728C101.491 21.4924 101.932 20.3533 101.931 19.0006C101.932 17.6478 101.491 16.5087 100.612 15.6284C99.7428 14.7487 98.6524 14.3019 97.3919 14.3042C96.1304 14.3019 95.0419 14.7487 94.1699 15.6284C93.2941 16.5087 92.8524 17.6478 92.8539 19.0006C92.8524 20.3533 93.2941 21.4924 94.1699 22.3728L94.3046 22.2405L94.4396 22.1083C93.6365 21.2962 93.2347 20.2747 93.2328 19.0006C93.2347 17.7264 93.6365 16.7049 94.4396 15.8928H94.4389C95.25 15.0809 96.2182 14.6827 97.3919 14.6804C98.5641 14.6827 99.535 15.0809 100.343 15.8928C101.149 16.7049 101.55 17.7264 101.552 19.0006C101.55 20.2747 101.149 21.2962 100.343 22.1083C99.535 22.9202 98.5641 23.3185 97.3919 23.3208C96.2182 23.3185 95.25 22.9202 94.4389 22.1083L94.3046 22.2405ZM101.558 23.1855L101.423 23.0547C100.337 24.16 99.0089 24.7058 97.3919 24.7081C95.7735 24.7058 94.4457 24.16 93.3622 23.0547C92.2787 21.9458 91.7437 20.6084 91.7418 19.0006C91.7437 17.3927 92.2787 16.0554 93.3622 14.9464C94.4457 13.8412 95.7735 13.2945 97.3919 13.2923C98.9994 13.2945 100.324 13.8435 101.416 14.9545C102.503 16.0686 103.041 17.4038 103.043 19.0006C103.041 20.6084 102.504 21.9458 101.423 23.0547L101.558 23.1855L101.694 23.3162C102.843 22.145 103.423 20.6921 103.422 19.0006C103.423 17.3186 102.841 15.8688 101.687 14.6923C100.533 13.5113 99.0872 12.914 97.3919 12.916C95.6871 12.914 94.2372 13.5084 93.0905 14.6849V14.6842C91.94 15.8562 91.3618 17.309 91.3633 19.0006C91.3618 20.6921 91.94 22.145 93.0905 23.317V23.3162C94.2372 24.4927 95.6871 25.0859 97.3919 25.0843C99.0952 25.0859 100.545 24.4927 101.694 23.3162L101.558 23.1855Z" fill="#F5F5F5"/>
<path d="M110.584 24.8956C108.912 24.8956 107.51 24.3335 106.378 23.2084C105.244 22.0841 104.68 20.6812 104.68 18.9999C104.68 17.3185 105.244 15.9157 106.378 14.7915C107.51 13.6663 108.912 13.1035 110.584 13.1035C112.296 13.1035 113.688 13.7186 114.757 14.948L113.74 15.926C112.969 14.9693 111.915 14.4916 110.584 14.4916C109.344 14.4916 108.299 14.9068 107.448 15.7372C106.596 16.5675 106.171 17.6552 106.171 18.9999C106.171 20.3446 106.596 21.433 107.448 22.2627C108.299 23.093 109.344 23.5082 110.584 23.5082C111.948 23.5082 113.112 22.9621 114.075 21.8695L115.09 22.8776C114.571 23.4978 113.921 23.9894 113.137 24.351C112.355 24.714 111.502 24.8956 110.584 24.8956Z" fill="#F5F5F5"/>
<path d="M110.585 24.8962V24.7081C108.956 24.7058 107.613 24.1657 106.514 23.076C105.415 21.9847 104.873 20.64 104.871 19.0005C104.873 17.3611 105.415 16.0164 106.514 14.9251C107.613 13.8346 108.956 13.2945 110.585 13.2923C112.253 13.2952 113.578 13.8816 114.616 15.0713L114.759 14.9486L114.627 14.8134L113.611 15.7922L113.742 15.9267L113.89 15.8091C113.087 14.8083 111.961 14.3013 110.585 14.3041C109.303 14.3026 108.2 14.74 107.317 15.6033C106.426 16.4698 105.981 17.6175 105.983 19.0005C105.981 20.3836 106.426 21.5328 107.317 22.3978C108.2 23.261 109.303 23.6985 110.585 23.6969C112.002 23.6992 113.229 23.1215 114.219 21.9943L114.077 21.8701L113.943 22.0031L114.958 23.0113L115.092 22.8782L114.946 22.7586C114.445 23.3566 113.821 23.8299 113.059 24.1812C112.303 24.5324 111.48 24.7073 110.585 24.7081V24.8962V25.0843C111.529 25.0843 112.411 24.8977 113.219 24.5222C114.027 24.1503 114.7 23.6411 115.238 22.9988L115.348 22.8673L114.211 21.7371L114.067 21.5945L113.934 21.746C112.998 22.8049 111.898 23.3184 110.585 23.3207C109.388 23.3184 108.402 22.926 107.583 22.1288H107.583C106.768 21.3351 106.363 20.307 106.362 19.0005C106.363 17.6941 106.768 16.6675 107.583 15.8723H107.583C108.402 15.075 109.388 14.6826 110.585 14.6804C111.872 14.6834 112.855 15.1317 113.594 16.0442L113.724 16.206L114.891 15.0839L115.02 14.9603L114.903 14.826C113.803 13.5562 112.343 12.9139 110.585 12.916C108.87 12.9145 107.409 13.5003 106.246 14.6591C105.076 15.8157 104.49 17.2781 104.492 19.0005C104.49 20.723 105.076 22.1854 106.246 23.3427C107.409 24.5008 108.87 25.0858 110.585 25.0843V24.8962Z" fill="#F5F5F5"/>
<path d="M120.998 24.6446H119.537V14.7441H116.363V13.3574H124.171V14.7441H120.998V24.6446Z" fill="#F5F5F5"/>
<path d="M120.992 24.6452V24.4571H119.721V14.5566H116.547V13.5462H123.976V14.5566H120.803V24.6452H120.992H121.182V14.9328H124.355V13.358V13.1699H116.168V14.7447V14.9328H119.342V24.8333H120.992H121.182V24.6452H120.992Z" fill="#F5F5F5"/>
<path d="M134.195 13.3574L129.895 22.8787C129.302 24.2243 128.42 24.8967 127.246 24.8967C126.896 24.8967 126.52 24.813 126.118 24.6446L126.498 23.3042C126.743 23.4416 126.996 23.5093 127.261 23.5093C127.599 23.5093 127.862 23.4439 128.047 23.3131C128.232 23.1816 128.403 22.9412 128.562 22.595L128.975 21.6957L125.15 13.3574H126.865L129.674 19.8365H129.736L132.48 13.3574H134.195Z" fill="#F5F5F5"/>
<path d="M134.195 13.358L134.021 13.2809L129.722 22.8029L129.721 22.8045C129.137 24.1087 128.339 24.7026 127.245 24.7092C126.926 24.7092 126.575 24.6328 126.19 24.4718L126.117 24.6452L126.3 24.6966L126.68 23.3562L126.498 23.3049L126.405 23.4687C126.675 23.6201 126.962 23.6988 127.26 23.698C127.622 23.698 127.925 23.6297 128.157 23.4665C128.384 23.3026 128.567 23.0359 128.735 22.6743L129.147 21.7749L129.182 21.6963L125.445 13.5462H126.74L129.548 20.0252H129.736H129.862L132.606 13.5462H134.195V13.358V13.1699H132.48H132.354L129.561 19.7644L129.736 19.8371V19.649H129.673V19.8371L129.847 19.7629L126.989 13.1699H125.15H124.855L128.766 21.6963L128.39 22.5178C128.24 22.8478 128.078 23.0609 127.936 23.16C127.798 23.2593 127.575 23.3226 127.26 23.3218C127.028 23.3218 126.81 23.2636 126.591 23.141L126.381 23.0234L125.935 24.5939L125.889 24.7539L126.044 24.8187C126.464 24.9942 126.865 25.0854 127.245 25.0854C128.5 25.0913 129.465 24.3403 130.068 22.9551L130.068 22.9565L134.487 13.1699H134.195V13.358Z" fill="#F5F5F5"/>
<path d="M135.846 24.6446V13.3574H144.067V24.6446H142.606V14.7441H137.305V24.6446H135.846Z" fill="#F5F5F5"/>
<path d="M135.848 24.6452H136.037V13.5462H143.879V24.4571H142.797V14.5566H137.117V24.4571H135.848V24.6452V24.8333H137.306H137.496V14.9328H142.418V24.8333H144.069H144.258V13.1699H135.658V24.8333H135.848V24.6452Z" fill="#F5F5F5"/>
<path d="M146.672 24.6446V13.3574H148.131V18.1964H153.813V13.3574H155.274V24.6446H153.813V19.5522H148.131V24.6446H146.672Z" fill="#F5F5F5"/>
<path d="M146.666 24.6452H146.855V13.5462H147.936V18.3851H153.997V13.5462H155.079V24.4571H153.997V19.3647H147.936V24.4571H146.666V24.6452V24.8333H148.125H148.315V19.7409H153.618V24.8333H155.268H155.458V13.1699H153.807H153.618V18.0089H148.315V13.1699H146.666H146.477V24.8333H146.666V24.6452Z" fill="#F5F5F5"/>
<path d="M159.916 22.2399C160.759 23.0857 161.787 23.5082 163.004 23.5082C164.221 23.5082 165.25 23.0857 166.09 22.2399C166.932 21.3941 167.353 20.313 167.353 18.9999C167.353 17.6869 166.932 16.6057 166.09 15.7599C165.25 14.9141 164.221 14.4916 163.004 14.4916C161.787 14.4916 160.759 14.9141 159.916 15.7599C159.077 16.6057 158.655 17.6869 158.655 18.9999C158.655 20.313 159.077 21.3941 159.916 22.2399ZM167.17 23.1848C166.054 24.326 164.664 24.8956 163.004 24.8956C161.343 24.8956 159.954 24.326 158.838 23.1848C157.721 22.045 157.164 20.6497 157.164 18.9999C157.164 17.3501 157.721 15.9547 158.838 14.815C159.954 13.6737 161.343 13.1035 163.004 13.1035C164.655 13.1035 166.04 13.6767 167.163 14.8223C168.284 15.968 168.844 17.3605 168.844 18.9999C168.844 20.6497 168.286 22.045 167.17 23.1848Z" fill="#F5F5F5"/>
<path d="M159.916 22.2405L159.782 22.3728C160.655 23.2525 161.742 23.6993 163.003 23.697C164.265 23.6993 165.354 23.2525 166.225 22.3728C167.103 21.4924 167.544 20.3533 167.543 19.0006C167.544 17.6478 167.103 16.5087 166.225 15.6284C165.354 14.7487 164.265 14.3019 163.003 14.3042C161.742 14.3019 160.655 14.7487 159.782 15.6284C158.906 16.5087 158.464 17.6478 158.465 19.0006C158.464 20.3533 158.906 21.4924 159.782 22.3728L159.916 22.2405L160.052 22.1083C159.248 21.2962 158.846 20.2747 158.844 19.0006C158.846 17.7264 159.248 16.7049 160.052 15.8928C160.862 15.0809 161.831 14.6827 163.003 14.6804C164.176 14.6827 165.147 15.0809 165.955 15.8928C166.761 16.7049 167.162 17.7264 167.164 19.0006C167.162 20.2747 166.761 21.2962 165.955 22.1083C165.147 22.9202 164.176 23.3185 163.003 23.3208C161.831 23.3185 160.862 22.9202 160.052 22.1083L159.916 22.2405ZM167.17 23.1855L167.035 23.0547C165.949 24.16 164.62 24.7058 163.003 24.7081C161.386 24.7058 160.058 24.16 158.975 23.0547C157.89 21.9458 157.356 20.6084 157.354 19.0006C157.356 17.3927 157.89 16.0554 158.975 14.9464C160.058 13.8412 161.386 13.2945 163.003 13.2923C164.611 13.2945 165.936 13.8435 167.027 14.9545C168.115 16.0686 168.653 17.4038 168.655 19.0006C168.653 20.6084 168.116 21.9458 167.035 23.0547L167.17 23.1855L167.306 23.3162C168.455 22.145 169.035 20.6921 169.033 19.0006C169.035 17.3186 168.453 15.8688 167.299 14.6923C166.145 13.5113 164.699 12.914 163.003 12.916C161.299 12.914 159.85 13.5084 158.702 14.6849V14.6842C157.552 15.8562 156.973 17.309 156.975 19.0006C156.973 20.6921 157.552 22.145 158.702 23.317V23.3162C159.85 24.4927 161.299 25.0859 163.003 25.0843C164.708 25.0859 166.157 24.4927 167.306 23.3162L167.17 23.1855Z" fill="#F5F5F5"/>
<path d="M176.265 23.258H179.202C179.763 23.258 180.217 23.0633 180.568 22.6731C180.916 22.2858 181.09 21.8595 181.09 21.3965C181.09 20.9343 180.91 20.5118 180.551 20.1282C180.193 19.7447 179.719 19.5522 179.138 19.5522H176.265V23.258ZM176.265 18.1964H178.916C179.467 18.1964 179.909 18.0164 180.242 17.6526C180.575 17.2902 180.742 16.8943 180.742 16.4629C180.742 16.0323 180.581 15.6369 180.257 15.2813C179.935 14.9233 179.509 14.7441 178.981 14.7441H176.265V18.1964ZM174.807 24.6446V13.3574H178.916C179.805 13.3574 180.575 13.65 181.225 14.2318C181.877 14.8161 182.202 15.5486 182.202 16.4313C182.202 16.9669 182.062 17.4402 181.78 17.8503C181.501 18.2602 181.128 18.5704 180.663 18.7805V18.843C181.221 19.0319 181.683 19.3581 182.043 19.8203C182.401 20.2833 182.583 20.8198 182.583 21.4289C182.583 22.3533 182.242 23.1204 181.558 23.7298C180.876 24.3397 180.07 24.6446 179.138 24.6446H174.807Z" fill="#F5F5F5"/>
<path d="M176.274 23.2586V23.4467H179.212C179.816 23.449 180.337 23.2285 180.718 22.7992C181.093 22.3855 181.291 21.9079 181.289 21.3971C181.291 20.8858 181.085 20.4102 180.699 20.0004C180.306 19.5777 179.771 19.3624 179.147 19.3647H176.085V23.4467H176.274V23.2586H176.464V19.7409H179.147C179.689 19.743 180.096 19.9136 180.422 20.2568C180.755 20.6153 180.909 20.985 180.911 21.3971C180.909 21.8123 180.759 22.1873 180.435 22.5486C180.119 22.8985 179.729 23.0674 179.212 23.0705H176.274V23.2586ZM176.274 18.197V18.3851H178.926C179.517 18.3872 180.024 18.1844 180.392 17.7796V17.7803C180.75 17.3923 180.941 16.944 180.941 16.4635C180.941 15.9859 180.757 15.5391 180.407 15.1555V15.1563C180.053 14.7578 179.56 14.5543 178.99 14.5566H176.085V18.3851H176.274V18.197H176.464V14.9328H178.99C179.477 14.9358 179.837 15.0901 180.125 15.4068L180.126 15.4082L180.125 15.4076C180.422 15.7368 180.561 16.0807 180.562 16.4635C180.561 16.8448 180.418 17.1902 180.112 17.526V17.5268C179.812 17.8494 179.435 18.0067 178.926 18.0089H176.274V18.197ZM174.816 24.6452H175.006V13.5462H178.926C179.773 13.5477 180.489 13.8195 181.108 14.3722C181.723 14.9262 182.02 15.5957 182.022 16.4319C182.022 16.9353 181.892 17.3667 181.634 17.745C181.373 18.1272 181.03 18.4123 180.592 18.61L180.483 18.66V18.8436V18.9781L180.61 19.0214C181.138 19.2008 181.564 19.502 181.903 19.9364L181.905 19.9385L181.903 19.9356C182.236 20.3677 182.403 20.857 182.403 21.4295C182.401 22.3084 182.087 23.0116 181.441 23.5908C180.79 24.1706 180.038 24.4556 179.147 24.4571H174.816V24.6452V24.8333H179.147C180.121 24.8348 180.981 24.5099 181.695 23.87C182.414 23.2313 182.783 22.4002 182.782 21.4295C182.783 20.7837 182.587 20.2001 182.202 19.7063L182.2 19.7041L182.202 19.7056C181.822 19.2163 181.326 18.8649 180.732 18.6658L180.672 18.8436H180.861V18.7812H180.672L180.75 18.9523C181.244 18.7298 181.649 18.3953 181.946 17.9559V17.9566C182.249 17.5151 182.401 16.9998 182.401 16.4319C182.403 15.5037 182.051 14.7073 181.361 14.0928C180.68 13.4807 179.856 13.1684 178.926 13.1699H174.627V24.8333H174.816V24.6452Z" fill="#F5F5F5"/>
</g>
<defs>
<clipPath id="clip0_1071_1467">
<rect width="256.045" height="75.2459" fill="white"/>
</clipPath>
</defs>
</svg>
