<?xml version="1.0" encoding="utf-8"?>
<!-- Generator: Adobe Illustrator 24.1.1, SVG Export Plug-In . SVG Version: 6.00 Build 0)  -->
<svg version="1.1" id="Слой_1" xmlns="http://www.w3.org/2000/svg" xmlns:xlink="http://www.w3.org/1999/xlink" x="0px" y="0px"
	 viewBox="0 0 673 199" style="enable-background:new 0 0 673 199;" xml:space="preserve">
<style type="text/css">
	.st0{fill:#100F0D;}
	.st1{fill:#EB3131;}
	.st2{fill:#F6B60B;}
	.st3{fill:#5778C5;}
	.st4{fill:#3BAD49;}
	.st5{fill:#FFFFFF;}
	.st6{enable-background:new    ;}
	.st7{fill:#FFFFFF;stroke:#FFFFFF;stroke-width:0.75;stroke-miterlimit:10;}
</style>
<path class="st0" d="M647.5,199H24.9C11.2,199,0,187.8,0,174.1V24.9C0,11.2,11.2,0,24.9,0h622.6c13.7,0,24.9,11.2,24.9,24.9v149.3
	C672.4,187.8,661.2,199,647.5,199z"/>
<g>
	<path class="st1" d="M103.1,96.6l-53,56.2l0,0c1.6,6.1,7.2,10.6,13.8,10.6c2.6,0,5.1-0.7,7.3-2l0.2-0.1L131,127L103.1,96.6z"/>
	<path class="st2" d="M156.7,87.1L156.7,87.1l-25.8-15l-29,25.8L131,127l25.6-14.8c4.5-2.4,7.5-7.2,7.5-12.6
		C164.2,94.2,161.2,89.5,156.7,87.1z"/>
	<path class="st3" d="M50.1,46.2c-0.3,1.2-0.5,2.4-0.5,3.7v99.3c0,1.3,0.2,2.5,0.5,3.7l54.8-54.8L50.1,46.2z"/>
	<path class="st4" d="M103.5,99.5l27.4-27.4L71.4,37.6c-2.2-1.3-4.7-2-7.4-2c-6.6,0-12.2,4.5-13.8,10.6l0,0L103.5,99.5z"/>
</g>
<path class="st5" d="M491.7,100h8.1V45.6h-8.1V100z M564.8,65.2l-9.3,23.6h-0.3l-9.7-23.6h-8.8l14.5,32.9l-8.3,18.3h8.5l22.3-51.3
	h-8.9V65.2z M518.8,93.8c-2.7,0-6.4-1.3-6.4-4.6c0-4.2,4.6-5.8,8.6-5.8c3.6,0,5.2,0.8,7.4,1.8C527.8,90.3,523.5,93.8,518.8,93.8z
	 M519.8,64c-5.9,0-12,2.6-14.5,8.3l7.2,3c1.5-3,4.4-4,7.4-4c4.2,0,8.5,2.5,8.5,7v0.6c-1.5-0.8-4.6-2.1-8.5-2.1
	c-7.8,0-15.7,4.3-15.7,12.2c0,7.3,6.4,12,13.5,12c5.5,0,8.5-2.4,10.4-5.3h0.3v4.2h7.8V79.1C536.3,69.4,529.1,64,519.8,64z
	 M469.6,71.8H458V53.2h11.5c6.1,0,9.5,5,9.5,9.3C479.1,66.7,475.7,71.8,469.6,71.8z M469.4,45.6h-19.5V100h8.1V79.4h11.3
	c9,0,17.8-6.5,17.8-16.9S478.4,45.6,469.4,45.6z M363.3,93.8c-5.6,0-10.3-4.7-10.3-11.1c0-6.5,4.7-11.3,10.3-11.3
	c5.5,0,9.9,4.8,9.9,11.3C373.2,89.1,368.8,93.8,363.3,93.8z M372.6,68.3h-0.3c-1.8-2.2-5.3-4.1-9.7-4.1c-9.3,0-17.7,8.1-17.7,18.6
	c0,10.4,8.5,18.4,17.7,18.4c4.4,0,7.9-2,9.7-4.2h0.3v2.7c0,7.1-3.8,10.9-9.9,10.9c-5,0-8.1-3.6-9.3-6.6l-7.1,2.9
	c2,4.9,7.4,10.9,16.4,10.9c9.5,0,17.6-5.6,17.6-19.3V65.2h-7.7V68.3z M385.9,100h8.1V45.6h-8.1V100z M406.1,82.1
	c-0.2-7.1,5.5-10.8,9.7-10.8c3.2,0,6,1.6,6.9,3.9L406.1,82.1z M431.3,75.9c-1.5-4.1-6.2-11.8-15.8-11.8c-9.5,0-17.5,7.5-17.5,18.5
	c0,10.4,7.9,18.5,18.4,18.5c8.5,0,13.4-5.2,15.4-8.2l-6.3-4.2c-2.1,3.1-5,5.1-9.1,5.1s-7.1-1.9-9-5.6L432.1,78L431.3,75.9z
	 M234.1,69.8v7.8h18.8c-0.6,4.4-2,7.6-4.3,9.9c-2.7,2.7-7,5.7-14.5,5.7c-11.6,0-20.6-9.3-20.6-20.9s9-20.9,20.6-20.9
	c6.2,0,10.8,2.5,14.2,5.6l5.5-5.5c-4.7-4.5-10.9-7.9-19.7-7.9c-15.8,0-29.2,12.9-29.2,28.7s13.3,28.7,29.2,28.7c8.6,0,15-2.8,20-8.1
	c5.2-5.2,6.8-12.5,6.8-18.4c0-1.8-0.1-3.5-0.4-4.9h-26.4V69.8z M282.4,93.8c-5.6,0-10.4-4.6-10.4-11.2c0-6.7,4.8-11.2,10.4-11.2
	s10.4,4.6,10.4,11.2C292.8,89.2,288,93.8,282.4,93.8z M282.4,64.1c-10.2,0-18.6,7.8-18.6,18.5c0,10.6,8.3,18.5,18.6,18.5
	c10.2,0,18.6-7.8,18.6-18.5C300.9,71.9,292.6,64.1,282.4,64.1z M322.9,93.8c-5.6,0-10.4-4.6-10.4-11.2c0-6.7,4.8-11.2,10.4-11.2
	s10.4,4.6,10.4,11.2C333.3,89.2,328.5,93.8,322.9,93.8z M322.9,64.1c-10.2,0-18.6,7.8-18.6,18.5c0,10.6,8.3,18.5,18.6,18.5
	c10.2,0,18.6-7.8,18.6-18.5S333.1,64.1,322.9,64.1z"/>
<g class="st6">
	<path class="st7" d="M218.2,163.9v-13.3l-12.1-18.2h5.1l6.2,9.5c1.1,1.8,2.2,3.6,3.2,5.3c0.9-1.6,2.1-3.5,3.4-5.6l6.1-9.3h4.9
		l-12.6,18.2v13.3H218.2z"/>
	<path class="st7" d="M259.4,132.4h4.2v18.2c0,3.2-0.4,5.7-1.1,7.5c-0.7,1.9-2,3.4-3.9,4.5c-1.9,1.2-4.3,1.8-7.4,1.8
		c-3,0-5.4-0.5-7.2-1.5c-1.9-1-3.2-2.5-4-4.4c-0.8-1.9-1.2-4.6-1.2-7.9v-18.2h4.2v18.2c0,2.7,0.3,4.8,0.8,6c0.5,1.3,1.4,2.3,2.6,3
		c1.2,0.7,2.8,1.1,4.5,1.1c3.1,0,5.2-0.7,6.6-2.1c1.3-1.4,2-4.1,2-8V132.4z"/>
	<path class="st7" d="M270.3,163.9v-31.5h4.2V148l15.6-15.6h5.7l-13.2,12.8l13.8,18.7h-5.5l-11.2-15.9l-5.2,5v10.9H270.3z"/>
	<path class="st7" d="M299.6,163.9v-31.5h4.2v27.8h15.5v3.7H299.6z"/>
	<path class="st7" d="M320.8,163.9l12.1-31.5h4.5l12.9,31.5h-4.7l-3.7-9.5h-13.2l-3.5,9.5H320.8z M329.9,150.9h10.7l-3.3-8.7
		c-1-2.6-1.7-4.8-2.2-6.5c-0.4,2-1,4-1.7,6L329.9,150.9z"/>
	<path class="st7" d="M353.5,163.9v-31.5h11.8c2.4,0,4.3,0.3,5.8,1c1.5,0.6,2.6,1.6,3.4,2.9c0.8,1.3,1.2,2.7,1.2,4.2
		c0,1.3-0.4,2.6-1.1,3.8c-0.7,1.2-1.8,2.1-3.3,2.9c1.9,0.6,3.4,1.5,4.4,2.9c1,1.3,1.5,2.9,1.5,4.8c0,1.5-0.3,2.8-0.9,4.1
		s-1.4,2.2-2.3,2.9c-0.9,0.7-2.1,1.2-3.4,1.6c-1.4,0.4-3.1,0.5-5.1,0.5H353.5z M357.6,145.6h6.8c1.8,0,3.2-0.1,4-0.4
		c1.1-0.3,1.9-0.8,2.4-1.6s0.8-1.6,0.8-2.8c0-1-0.3-2-0.8-2.8c-0.5-0.8-1.2-1.3-2.1-1.6c-0.9-0.3-2.5-0.4-4.8-0.4h-6.3V145.6z
		 M357.6,160.1h7.8c1.3,0,2.3,0,2.8-0.2c1-0.2,1.8-0.5,2.4-0.9c0.6-0.4,1.2-1,1.6-1.8c0.4-0.8,0.6-1.7,0.6-2.7
		c0-1.2-0.3-2.2-0.9-3.1c-0.6-0.9-1.4-1.5-2.5-1.8c-1.1-0.4-2.6-0.5-4.6-0.5h-7.3V160.1z"/>
	<path class="st7" d="M393.9,148.5c0-5.2,1.4-9.3,4.2-12.3c2.8-3,6.4-4.4,10.9-4.4c2.9,0,5.5,0.7,7.9,2.1c2.3,1.4,4.1,3.3,5.3,5.8
		c1.2,2.5,1.8,5.3,1.8,8.5c0,3.2-0.6,6.1-1.9,8.6c-1.3,2.5-3.1,4.4-5.5,5.7c-2.4,1.3-4.9,1.9-7.6,1.9c-3,0-5.6-0.7-7.9-2.1
		c-2.3-1.4-4.1-3.4-5.3-5.9C394.5,153.9,393.9,151.3,393.9,148.5z M398.2,148.6c0,3.8,1,6.8,3.1,9c2,2.2,4.6,3.3,7.7,3.3
		c3.1,0,5.7-1.1,7.7-3.3c2-2.2,3-5.3,3-9.4c0-2.6-0.4-4.8-1.3-6.7c-0.9-1.9-2.1-3.4-3.8-4.4c-1.7-1.1-3.5-1.6-5.6-1.6
		c-3,0-5.5,1-7.6,3C399.3,140.5,398.2,143.8,398.2,148.6z"/>
	<path class="st7" d="M429.3,163.9v-31.5h4.2v27.8h15.5v3.7H429.3z"/>
	<path class="st7" d="M454.6,163.9v-31.5h4.2v31.5H454.6z"/>
	<path class="st7" d="M464.7,153.7l3.9-0.3c0.2,1.6,0.6,2.9,1.3,3.9c0.7,1,1.7,1.8,3.2,2.4c1.4,0.6,3,0.9,4.8,0.9
		c1.6,0,3-0.2,4.2-0.7c1.2-0.5,2.1-1.1,2.7-1.9c0.6-0.8,0.9-1.7,0.9-2.7c0-1-0.3-1.9-0.9-2.6c-0.6-0.7-1.5-1.4-2.8-1.9
		c-0.8-0.3-2.7-0.8-5.6-1.5c-2.9-0.7-4.9-1.3-6.1-2c-1.5-0.8-2.6-1.8-3.4-2.9c-0.7-1.2-1.1-2.5-1.1-3.9c0-1.6,0.5-3.1,1.4-4.5
		c0.9-1.4,2.2-2.4,4-3.1c1.7-0.7,3.7-1.1,5.8-1.1c2.3,0,4.4,0.4,6.2,1.1s3.2,1.9,4.1,3.3c1,1.5,1.5,3.1,1.5,5l-4,0.3
		c-0.2-2-0.9-3.5-2.2-4.5c-1.2-1-3.1-1.5-5.5-1.5c-2.5,0-4.4,0.5-5.5,1.4c-1.2,0.9-1.7,2-1.7,3.3c0,1.1,0.4,2.1,1.2,2.8
		c0.8,0.7,2.9,1.5,6.3,2.2c3.4,0.8,5.7,1.4,7,2c1.8,0.8,3.2,1.9,4.1,3.2c0.9,1.3,1.3,2.8,1.3,4.5c0,1.7-0.5,3.3-1.4,4.7
		c-1,1.5-2.3,2.6-4.1,3.5c-1.8,0.8-3.8,1.2-6.1,1.2c-2.9,0-5.2-0.4-7.2-1.2c-1.9-0.8-3.4-2.1-4.5-3.7
		C465.3,157.7,464.8,155.8,464.7,153.7z"/>
	<path class="st7" d="M495.6,163.9v-31.5h4.2v12.9h16.4v-12.9h4.2v31.5h-4.2V149h-16.4v14.8H495.6z"/>
</g>
</svg>
