<svg width="166" height="33" viewBox="0 0 166 33" fill="none" xmlns="http://www.w3.org/2000/svg">
<g clip-path="url(#clip0_1066_1559)">
<path d="M0.0332031 9.87379H6.73505L6.97641 12.3533C7.68885 11.4944 8.5971 10.7798 9.69728 10.2075C10.7984 9.63622 12.0915 9.34961 13.5823 9.34961C14.4886 9.34961 15.298 9.44387 16.0104 9.63622C16.7209 9.8257 17.3452 10.0729 17.8793 10.373C18.4143 10.6778 18.8825 11.0106 19.2887 11.3761C19.6929 11.7425 20.0244 12.0994 20.2822 12.4495C21.2224 11.4627 22.3623 10.7009 23.7068 10.1604C25.0512 9.61987 26.4519 9.34961 27.9068 9.34961C30.8225 9.34961 33.0471 10.1604 34.5854 11.781C36.1227 13.4036 36.8914 15.6128 36.8914 18.4087V32.2364H29.8997V19.5061C29.8997 18.1712 29.5983 17.1382 29.0012 16.4063C28.4012 15.6753 27.5017 15.3098 26.3055 15.3098C24.9456 15.3098 23.8609 15.7715 23.0515 16.6919C22.2431 17.6152 21.8389 18.7905 21.8389 20.2207V32.2364H15.0876V19.5061C15.0876 18.1712 14.7881 17.1382 14.1891 16.4063C13.59 15.6753 12.6925 15.3098 11.4934 15.3098C10.1655 15.3098 9.09048 15.7715 8.26463 16.6919C7.4378 17.6152 7.02681 18.7905 7.02681 20.2207V32.2364H0.0332031L0.0332031 9.87379Z" fill="white"/>
<path d="M55.1497 27.0401C56.0231 27.0401 56.8024 26.8727 57.4799 26.539C58.1614 26.2043 58.7342 25.7513 59.2053 25.18C59.6735 24.6077 60.0215 23.9643 60.2483 23.2497C60.4751 22.5331 60.5895 21.7945 60.5895 21.0308C60.5895 20.2691 60.4751 19.5294 60.2483 18.8148C60.0215 18.0993 59.6735 17.4635 59.2053 16.9076C58.7342 16.3517 58.1614 15.9064 57.4799 15.5726C56.8024 15.2379 56.0231 15.0725 55.1497 15.0725C54.2754 15.0725 53.4912 15.2379 52.7943 15.5726C52.0993 15.9064 51.5235 16.3517 51.0699 16.9076C50.6172 17.4635 50.2702 18.0993 50.0269 18.8148C49.7826 19.5294 49.6624 20.2691 49.6624 21.0308C49.6624 21.7945 49.7826 22.5331 50.0269 23.2497C50.2702 23.9643 50.6172 24.6077 51.0699 25.18C51.5235 25.7513 52.0993 26.2043 52.7943 26.539C53.4912 26.8727 54.2754 27.0401 55.1497 27.0401ZM42.9121 21.0308C42.9121 19.3794 43.2116 17.829 43.8107 16.3825C44.4087 14.9369 45.2433 13.6731 46.3105 12.5911C47.3797 11.512 48.666 10.6598 50.1733 10.0404C51.6786 9.42102 53.3371 9.11133 55.1497 9.11133C56.9633 9.11133 58.6131 9.42102 60.1049 10.0404C61.5928 10.6598 62.8722 11.512 63.9395 12.5911C65.0086 13.6731 65.8422 14.9369 66.4403 16.3825C67.0393 17.829 67.3389 19.3794 67.3389 21.0308C67.3389 22.6851 67.0393 24.2355 66.4403 25.6811C65.8422 27.1266 65.0086 28.3923 63.9395 29.4705C62.8722 30.5535 61.5928 31.4114 60.1049 32.0462C58.6131 32.6819 56.9633 33.0003 55.1497 33.0003C53.3371 33.0003 51.6786 32.6819 50.1733 32.0462C48.666 31.4114 47.3797 30.5535 46.3105 29.4705C45.2433 28.3923 44.4087 27.1266 43.8107 25.6811C43.2116 24.2355 42.9121 22.6851 42.9121 21.0308Z" fill="white"/>
<path d="M80.4985 26.3675C80.8872 26.5281 81.3147 26.6474 81.7857 26.7262C82.2539 26.8041 82.9092 26.8445 83.7525 26.8445C85.5981 26.8445 87.0307 26.2569 88.0504 25.0816C89.0692 23.9043 89.579 22.3626 89.579 20.4563C89.579 19.7581 89.4908 19.0733 89.3135 18.4067C89.1351 17.7373 88.8676 17.141 88.5118 16.6188C88.1551 16.0927 87.6937 15.6637 87.1276 15.33C86.5606 14.9962 85.8724 14.8308 85.064 14.8308C83.5102 14.8308 82.3606 15.2511 81.6142 16.0927C80.8707 16.9352 80.4985 18.0567 80.4985 19.4532V26.3675ZM73.5059 0H80.4985V11.1096C81.1479 10.4422 82.0291 9.91702 83.1467 9.53712C84.2624 9.15528 85.3722 8.96389 86.4714 8.96389C88.0911 8.96389 89.5306 9.26589 90.7936 9.86989C92.0576 10.4749 93.117 11.2933 93.9749 12.3253C94.8327 13.3593 95.487 14.5509 95.9416 15.9022C96.3943 17.2536 96.6221 18.6914 96.6221 20.2178C96.6221 22.0298 96.3226 23.6976 95.7226 25.2239C95.1235 26.7493 94.2579 28.0535 93.1267 29.1336C91.9917 30.2146 90.5997 31.0581 88.948 31.6612C87.2982 32.2642 85.4197 32.5653 83.3163 32.5653C81.3738 32.5653 79.5369 32.3912 77.8028 32.043C76.0716 31.6929 74.639 31.3265 73.5059 30.9466V0Z" fill="white"/>
<path d="M102.982 9.87305H109.977V32.2366H102.982V9.87305Z" fill="white"/>
<path d="M117.211 9.87305H124.205V22.7466C124.205 24.0191 124.52 25.0212 125.151 25.7503C125.782 26.4832 126.713 26.8477 127.944 26.8477C128.656 26.8477 129.287 26.714 129.837 26.4428C130.387 26.1735 130.858 25.8147 131.245 25.3694C131.634 24.9241 131.927 24.3999 132.119 23.7959C132.313 23.1929 132.41 22.5735 132.41 21.9358V9.87305H139.355V32.2356H132.654L132.46 29.8514C131.715 30.7093 130.735 31.4181 129.521 31.974C128.307 32.528 127.036 32.8079 125.71 32.8079C123.088 32.8079 121.015 32.0452 119.494 30.5198C117.972 28.9944 117.211 26.7361 117.211 23.7488V9.87305Z" fill="white"/>
<path d="M145.912 27.6114L157.081 15.4053H146.399V9.87305H165.919V14.5945L154.702 26.8487H165.968V32.2376H145.912V27.6114Z" fill="white"/>
<path d="M106.351 6.30839L102.613 0H110.09L106.351 6.30839Z" fill="white"/>
</g>
<defs>
<clipPath id="clip0_1066_1559">
<rect width="166" height="33" fill="white"/>
</clipPath>
</defs>
</svg>
